<?xml version="1.0" encoding="utf-8"?>
<!-- Generator: Adobe Illustrator 19.0.0, SVG Export Plug-In . SVG Version: 6.00 Build 0)  -->
<svg version="1.1" id="Layer_1" xmlns="http://www.w3.org/2000/svg" xmlns:xlink="http://www.w3.org/1999/xlink" x="0px" y="0px"
	 viewBox="0 0 124.7 184.3" style="enable-background:new 0 0 124.7 184.3;" xml:space="preserve">
<style type="text/css">
	.st0{fill:#5ABA47;}
	.st1{fill:#1D2555;}
	.st2{fill:#FFFFFF;}
</style>
<g id="XMLID_9_">
	<path id="XMLID_11_" class="st0" d="M124.7,62.3c0-34.4-27.9-62.3-62.3-62.3C27.9-0.1,0.1,27.8,0.1,62.3c0,16.8,6.7,32.1,17.5,43.3
		l-0.1,0.8c0,0,36.4,35.5,43.4,78h0.7h1.7h1.1c7-42.4,43.2-78,43.2-78l-0.3-0.4C118,94.7,124.7,79.1,124.7,62.3z"/>
	<circle id="XMLID_10_" class="st1" cx="62.4" cy="63.5" r="52.6"/>
</g>
<g id="XMLID_2_">
	<path id="XMLID_7_" class="st2" d="M28.2,51.7h-9v-3.3h22v3.3h-9.1v26.4h-3.9V51.7z"/>
	<path id="XMLID_5_" class="st2" d="M69.5,65.1C69.3,61,69,56,69,52.3h-0.1c-1,3.5-2.2,7.2-3.7,11.3L59.9,78H57l-4.8-14.1
		c-1.4-4.2-2.6-8-3.4-11.5h-0.1c-0.1,3.7-0.3,8.7-0.6,13.1l-0.8,12.7h-3.7l2.1-29.7h4.9l5.1,14.4c1.2,3.7,2.2,6.9,3,10h0.1
		c0.7-3,1.8-6.3,3.1-10l5.3-14.4h4.9L74,78.1h-3.7L69.5,65.1z"/>
	<path id="XMLID_3_" class="st2" d="M79.9,78.1V48.5h4.2l9.5,15c2.2,3.5,3.9,6.6,5.3,9.6l0.1,0c-0.4-4-0.4-7.6-0.4-12.2V48.5h3.6
		v29.7h-3.9l-9.4-15.1c-2.1-3.3-4.1-6.7-5.5-9.9l-0.1,0c0.2,3.7,0.3,7.3,0.3,12.2v12.7H79.9z"/>
</g>
</svg>
