<?xml version="1.0" encoding="utf-8"?>
<!-- Generator: Adobe Illustrator 19.0.0, SVG Export Plug-In . SVG Version: 6.00 Build 0)  -->
<svg version="1.1" id="Layer_1" xmlns="http://www.w3.org/2000/svg" xmlns:xlink="http://www.w3.org/1999/xlink" x="0px" y="0px"
	 viewBox="0 0 445.9 456" style="enable-background:new 0 0 445.9 456;" xml:space="preserve">
<style type="text/css">
	.st0{fill-rule:evenodd;clip-rule:evenodd;fill:#F47421;}
</style>
<path id="XMLID_474_" class="st0" d="M16.3,264.4c0.7,3.7,6.1,10.5,6.2,17.2c-2,0.4-1.9-3.7-3.7-3.6c1.5,3,4.4,17.4,1.8,13.6
	c0.3-0.6,5.1,5.9,5.8,8.1c-2.3-2.7-4.1-4.4-4.4-5.1c-1.2,1.4,10.3,18.9,10.1,20.6c-1.7-2-3.4-3.9-5.1-5.8c0.1,2.8,2.1,4.8,2.7,7.4
	c1.2,0.4-0.1,0.9,2.7,2.8c0,0.3-0.7-4.5,0.6-3.7c-0.1-0.1,2.1,5.2,2.2,5.6c0.2-0.8-4.6-0.6-4.7-0.6c0.6,1.2,1.2,2.5,1.8,3.8
	c-4.6,2.1-0.2-2.8-1.5,2.9c1.2,0.1-0.5-1.7,0.2-2.7c0.5,1,1,2,1.5,3.1c0.1-2.8,2.2-1.3,3.1-0.8c0.1,0.6,3.6,12.9,5.6,11.6
	c0,1-0.3,2-0.9,2.8c-1.1-1.5-2.3-3.1-3.4-4.6c-1.8,8.9,14.3,16.5,16.6,21c-2,2.6-7.8-6.1-9.4-6.9c-1.8,8.7,35.3,42.6,43.9,43.4
	c0.6,2.3,8.8,9.1,14.2,12.1c3.9,2.2,21.9,7.9,23.3,12c-1-0.7-2.3-0.8-3.4-1.2c1.7,12.4,70.2,20.4,78.2,21.1
	c44.1,3.7,88.7-6.8,126.7-29.5c35.7-21.3,64.9-52.9,82.9-90.4c9.1-18.9,15.4-39.1,18.5-59.9c1.3-8.8,7.5-59.5,0.9-63
	c4.4,2.3,2.8,31.2,3.5,36.3c-0.5,0.4-0.2-0.7-0.7-1.4c-2.9,6.7-1,22-2.3,31.2c-1.5,10.3-3.8,22.2-7.8,31.7
	c2.5,8.7-16.5,40.8-22.2,50c-5.6,8.9-12.9,17.9-20.7,26.8c-28.4,32.5-74.9,53.9-111.4,69.4c-0.6-1-1.6-1.5-2.8-1.4
	c0.3-1.4,1.2-1.9,2.7-1.4c-6.4,8.2-49.8,5-60.6,4.6c-14.2-0.6-39.9-0.2-51.7-7.8c-1.1,1.1,1.7,0.7,2.1,1.6c-0.5-1.6-13.8-5.4-17-4.7
	c-0.3-0.5,1-0.6,1.6-0.8c-1.2-0.3-2.4-0.6-3.6-0.9c-1.1,2.1,0.8,0.7,1.6,2.7c-2.7,0.9-5.7-1.6-7.8-2.8c0,0.1,6,0.1,6.2,0.1
	c-2.8-2.8-7.2-2.3-7.4-2.5c-1.4,0.6-9.9,1.3-12.7-2c-0.7-0.8,1.6-0.4,2.2-0.7c-2.3-2.9-13.5-5.5-18.4-8.3
	c-13.1-7.4-21.9-20.5-35-26.8c1.4,6.3-2.4-1.6-4.2-3.3c-3.1,0.7-9.2-6.7-10.9-11.5c0.4,2.6-0.7,2.6-3.1,0
	c-0.1-1.2-11.3-18.6-12.8-19.4c0.7,1.3-4.9-5.7-3.9-5.2c-1.4,6-6.5-7.4-5.9-10.1c-2.8-1.4-3.2,0.4-2.9-4.8c-0.7-0.4-6.5-3.3-2.1-1.6
	c-1.2-3.7-4.5-7.2-5.6-12.1c-0.6,0.8-1.4,0.8-2.2,0.1c0.8,4.2,3.4,11.7,6.4,14.5c-0.2,1.7-1.5,1.1-2.7,0c0.2,1.2,4.8,6.1,6.1,6.5
	c-0.8,6.4,5.6,10,11.2,19.2c0,1.2-0.9-0.9-1.9-0.7c0.1,1.4,1.9,1.7,1.7,3.4c-3.1-1.9-5-8.6-8.5-10.3c2.8,4.8,6.1,8.5,8.8,12.2
	c1.4,0.2-0.6-1.2-0.2-1.9c2.8,1.2,0,3.5,2.8,4.6c-0.3-0.8-0.9-1.5-1.2-2.2c0.9,0,4.9,3.4,1.7,2.4c2.3,3.7,6.3,6.2,9,9.9
	c-0.4,1.4-0.9-1.7-2.1-1.5c4.3,3.8,8.3,7.9,12.1,12.2c0,0.6-1.1,0.1-1.8,0.1c0-0.2,3.3,3.8,3.5,4.2c4.8,2.5,14.4,9,21.1,13.7
	c-0.1,1.1-2.2-0.7-2.9-1.1c1.6,2.1,3.7,3.3,6.4,3.5c2.2,3.1-2.9,1-3.3,1.5c27.7,19.4,65.7,35.2,98.5,40.5
	C232,466,297.6,447.9,344.4,417c27.9-18.5,52.4-43.6,69.7-72.8c9.1-15.4,16.9-32.9,21.7-49.3c2.7-9.1,2.9-24.4,7.1-32.4
	c0.6-0.4,0.1,0.8,0.5,1.5c7.9-16,2.9-49.8,0.3-67.2c-3.5-23.9-11.3-47.1-22.4-68.4c-17.5-33.7-43.1-62.1-74-83.2
	C313.5,22.1,276,11.2,242.9,4.5c-0.9-1.5,1.5-0.4,2.9-1c-4.5,0.1-13.8,2.1-17.6-1c-1.2,2.3-9.3,2.6-12.8,0.3c-2,1,1,0.9,1.6,1.1
	c-3.1,1.2-5.9-0.2-8.9,1.2c-3.4-3-26.7,2.5-34.4,5.1c-0.1-1.7,3.5-0.9,4.9-2c-0.7-0.4-1.4-0.1-2.1-0.6c6.5-2.6,8.4-2.4,14.6-4.3
	C186,2.3,178,4.1,173.8,6.9c-0.5-0.4,0.6-0.9,1.2-1.4c-22.1,5.5-56.5,19.7-74.4,36.4c-6.5,6-38,30-36.7,38.3c1,0,0.9-1.3,1.8-1.5
	c-4.5,8.1-12.8,11-16.8,18.5c-3.5,6.6-7.4,18.9-9.4,23.3c-9.1,19.7-13.1,45.8-5.8,60.8c2.5-4.1,4-11.5,5.6-15.9
	c0.5,2.3,0.2,3.1,1.3,6.3c3.2-13,11.6-28.1,9.9-40.2c-2.1,0.5,6.4,3.7,3.7,1.5c-0.4,1.2-0.5,2.3-0.2,3.5c1.6-0.3,0.1-4.5,1.4-5.1
	c1.4,1.1-1.9,12.1-2.3,13.6c-0.9-0.3-0.5-2.9-0.8-4c-1.8,2.4-2.1,9.8-2.3,13.1c1-1.9,1.3-4,1.1-6.1c3.7,5.3-6.9,29.5-5.9,37.5
	c6.8-5.2,11.6-15.2,13.3-21.6c4.2-0.2-1.7,5.2,2.9,3.4c-0.4-1.5,0.6-9.7,1.3-11.3c7.3-0.2,2,18.3,0.3,21.4c-1.1,0,0.6-1.3,0-2.1
	c-2.3,1.4-2.5,14.2-2.4,17.4c1.6,0.6,0.9-1.8,1.3-2.5c1.3,5.5,0.6,24.2,0.5,24.3c5.5,20.6,15.1-1.2,12.6-1.8c-0.3,0.3,0.2,0.7,0.4,1
	c-2.1,0.7-0.1-5.1,1.8-2.1c1.7-4.3,0.2-13.5-0.2-17.4c1.4,1.9,2.5,3.9,3.2,6.1c2-0.7,0.9-10.7,0.7-12.1c2.2-0.1,2.9,1.5,2.2,5
	c4.4-1.6-6.1-7.5,0.3-7.8c2-3.2-3.8-0.2,0.3-2.7c-0.3-2.1-0.8-2.5-1.5-3.5c1.9-1.3,2.7-0.9,2.4,1.4c0.3-0.2-2.2-8.9-1.3-7.6
	c1.1-0.7,4.2,4.6,4.4,4.9c1-0.4,2-5.2,2.5-6.3c0.3,0-0.1,1.7,0.1,2.5c3.4-1,5.3-3.8,8.2-8.4c0.8,0.4,1,1,0.8,1.9
	c4.1-0.7,4.3-16,8.7-18.4c1.1,2.2,1.1,4.3,0,6.4c2.3-0.4,1.7-1.9,2-3.3c2.4-0.5,0.1,2.3,1.4,3.7c3,0.8-0.1-10.9,0.7-7.7
	c3.3-0.5,0.2,2.1,3.4,0.2c-6.4-4,1.8,0.2-2.1-1.5c0.3-2.3,2.4-1.6,1.7-4.6c0.3,0.2,3,1.4,3.4,1.4c-2-2.9,3.4-8.7,4.3-12.5
	c1.3-0.1,0.2,1.6,0.8,1.9c1.5-1.5,1.3-5.6,1.1-7.6c-0.7,0.3-2,7.3-2.5,4.5c-0.8,0-2.4,8.6-5.7,8.3c-0.8-3.7,6.1-12.7,8.6-14.9
	c0.4,1.5,0.9,3.1,1.3,4.6c-0.2-2.8,7.7-6.5,8.2-10.6c1.5,0.3,0.5,1.5-0.1,1.8c-0.1-0.1,7.1-7.1,7.8-7.1c1,1.4,1.2,2.9,0.7,4.5
	c1.7-1.1,4.2-2.7,5.4-3.5c0.3-1.1-4.9-0.2-4.9-0.2c-1.5-0.9,7.4-1.7,3.3-2.5c0.7,2.8,9.3-8.6,12.9-10.2c1.2,2.4-3.6,3.1-1.6,3.7
	c2.3-2.2,4.7-3.3,6.8-4c1.3,1.4-2.3,1.8-1.7,3.6c6-2.2,11-5.7,13.1-5.1c0.2-1.5,1.4-2.2,2.5-2.7c-6.9-1.1,7.4-1.2,8-1.3
	c5-0.9,16.6-4.3,20.3-2.1c1.8-2.1,1.9-2.1,4.5-0.4c0.4-0.7,5.4-2.4,4.8,1.8c2.5-0.7-1.8-1.7-0.2-3.1c2.6,0.4,9.1,2.3,8.1,0.1
	c2.4-0.8,4.8-1,7.2-0.7c-0.6,0.9-0.5,1.8-1.8,1.9c-0.6-0.7,12.3,0.6,12.5,0.6c0.1,2-4.1-1.5-3.1,2.9c2.7-2.7,5.2-3,7.5-0.9
	c0.1,1.5-3.6,1.2-4.1,1.6c0.5,1.8,11.4,3.5,13.4,3.2c0.4-1-0.6-2.1-1.6-1.7c1.3-0.8,2.5-0.6,3.5,0.6c-1.6,0.8-2,2-1.3,3.6
	c1.7-3.7,2.7,1.4,2.2-2.4c0.9,0.2,2.1-0.3,2.4,1.1c0.2,3-0.9,0.4,1.8-0.6c1.2,0.5-0.3,0.8,0.3,1.8c4.4-1.1,0.1-1.4,1.1,2
	c3.5-3.1,11.9,5.4,16,5c2.9,1.1,5.8,6.2,12.2,6.9c4.2,2.7-1.7,1.7-1.6,1.6c1.5,2.8,11.6,9.2,11.7,8.6c1.2-0.1,1.2,5.7,1.1,6.2
	c-0.4,0.1-0.6-0.1-0.7-0.4c-0.6,0.8,1.5,2.1,2.1,2.9c-1.3-2.4,0.2-3.2-1.3-5.5c3.3,0.2,0.9,3,2.5,4.1c0.8-0.8,0.2-3,1.2-3.6
	c-0.6,4.2,1.4,3,4,2.5c0,0-2.1,4.7-2.1,4.6c0.3-0.1,3-0.6,3-0.5c3.7,4.8-1.3,1.2-2,2.4c4,1.2,19.2,17.4,17.8,21.6
	c0.6-0.6,0.5-1,1.3-1.9c2.3,3-0.8,3.2,2.3,5c-0.3-1.1-0.6-2.2-0.8-3.3c1,1.6,1.6,3.5,2.5,5.1c-1.1,1.8-0.8-2.1-2.6-1.4
	c-0.2,2.1,4.9,9.4,5.1,9.8c6.1,4.7-0.5,14,5.6,16.5c-0.2,0.6-0.4,16.9,2.8,20.3c0.7-0.9,1.3-0.7,1.6,0.4c0.1-2,0-3.9-0.2-5.9
	c-1.4-0.6-0.9-1.1,0.6-3.2c-0.2,1.1,0.3,8.7,1.2,9.5c-0.7-1.1,0.5,8.1,0.5,8c2,0.7-5.4-2.5-4.2-2.5c1.9,9-8.2,31.8-3.4,38.1
	c0.8,0.6,2.6-1.7,3.7,0c0,0.8-2.9,5.9-3.2,6.5c-1.5-1.5-2.5-3.3-2.8-5.4c-0.8,1.5-3.9,10.7-3,11.8c1.2-0.4,0.3-1.7,1.5-2.1
	c-1.1-0.4-0.1,4.6-0.1,4.3c0.3,0.8-1,0.2-0.9-0.4c-1,0.9,2.8-0.8,3.1-0.9c0.8,4.8-3.8,1.4-4.2,2c-0.4-0.1,0.2,5.7-2.4,6.1
	c0.5-1.4,4.6-10.4,1.1-10.9c-2.5,0.8,0.5,3.3-2.8,3.3c0.6,0,4.6,2.3,1.6,3.1c-1,0.1-0.6-2-0.9-2.3c-2.6,1-5.8,8.2-3.5,11.7
	c-3.5,1.9,2.9-5.4-1.6-5.1c2,3.3-3.1,7.5-5.5,8.7c2.9,3.5-1-11.5,3.2,3c-0.1,0-2.8-3.4-2.4-1.4c0.3,1.4,0.7,3.1,1.1,3.8
	c2.7-0.6,2.1-5.4,2.9-6.3c0.8-0.1-0.2,1.2-0.3,1.5c0.5,0.9,1.5-0.6,0.5-0.8c6.1,3.1-8.7,8.6-1.7,9.4c-0.1-0.1-0.4,5.3-1.5,5.3
	c0.4-0.1,1-5.9-3.4-3.6c0.5-1.5,3.7-6.9-0.8-4.9c3.5,2.2,0.5,1.5-1.2,5.8c1.9-0.4,3.5-1.5,3.4,1.1c-2.1,0.7,0.3,1.2-2.9-0.1
	c0.4,2.9-5.2,9.9-5.7,12.5c-4-1.1,4.3-3.4-1.5-3.9c0.1,1.7-0.4,3.2-1.4,4.6c1.2,0.3,0.5-1.2,1.4-1.1c1.1,1.2-4.4,4.4-4.5,6
	c-1.8-0.9,0.5-2.3-0.2-3.2c-1.4,0-3.4,1.5-4.1,3.7c-1.3-0.8-5.7,1.4-2.1,2.6c-0.8,2.5-10.3,3.9-12.3,7.4c0.6,1,1-0.4,1.9-0.3
	c0.5,1.3-1.8,2.5-2.8,3.1c1.4,1.1-3.5-4.3-1.7-2.3c-1.4,4.6-6.8,6.2-11,5.6c-1.9,2.6-6,0.9-4.9,2.3c-0.2,1.1-1.2,0.6-1.8,0.8
	c0.2-0.8,2,2.2,1.9,2c-2,1-0.9,1-1.7-0.7c1,0.2-5.6,4.1-3.9,3c-1-1.9-4.4-4.9-7.9-3.9c2,0.7,1.2,2.1-0.1,3.5
	c0.6-0.2,4.5-1.7,3.1,0.8c-1.9,1-1.2-0.3-2.5-0.5c0.3,0.6-1.3,2.3-1.6,3.2c-3-3.2-3.2,1.6-5.4,1c-3.6-3.4-7.1,1.5-10.9,5.3
	c-0.1-0.9-0.5-1.7-0.9-2.4c0.3-0.3,5.3-0.8,1.9-3c0.9,1,0.3,1.5-1.7,1.4c0.4,0.4-6.8-3.7-6.7,0.7c0.1,1.6,1.9,0.1,2.6,0.2
	c0.3,0.4-0.3,0.5-0.7,0.4c0.6,1.1,3-0.2,4.3,0.1c-0.4,0.3-15.7,4.5-14.2,2.2c-0.5-0.2-4.3-2.2-3.8-2.1c-1.9,4.1-25.8,0.7-22.6-1.3
	c-0.5-0.5-3.6,1.3-4.3,1.2c-0.4-0.7,0.3-1.2,1-1.7c-5.9,2.5-7.4,1.8-9.6-1.3c-2.1,1-0.5,2-3.1,2.4c-0.5-1.8,3-2.6,2.7-3
	c-1.4-2.6-3.5-3.2-6.2-1.9c-1-1.4-1.3-3.8-5-2.3c0.6-1.5,0.2-1.7-1-0.6c-0.6-2.7-15.3-6.4-13.6-3.5c-1.5,0.8-7-9.6-12.6-9.1
	c2.2,1.7,4.3,3.4,6.4,5.2c-1.2,0.2-1.7-0.8-2.5-1.4c-2.1,2.1,5.6,0-0.9,2.1c-1.1-3.6-2.3,1.4-4.7-1.9c-0.4,1.2,4.7-2.7,3.4-2.1
	c-1.3,1.2-2.7,1.2-4.2,0.1c0-0.6,0.4-0.9,1.2-1c0.1,0.5-2.6-2-2.9-2.4c-0.1,0-3.9,1.4-3.7,0.9c-2.4-3.6,0.7,0.3,1.4-2.8
	c-3.5-0.4-1.9-1.8-5.6-4.5c0-0.8,0.9,0.3,1.7-0.3c-1.6-3.1-5.5-1.5-6.2-0.4c-0.9-1.1-1.7-2.3-2.5-3.5c0.4-0.4,3.9,1.7,4.1,1.9
	c-3.4-2.4-3-3.8-7.1-7.1c0.8-3-0.6-4.2-5.9-5.6c0.2,0.2,4,2.3,4.1,2.6c0.4,5,8.1,15.9,12,16.6c-0.6,2.5,11.4,17,17.2,15
	c-0.9-2.4-1.4,0.7-1.5-2.5c1.9-0.5,2.9,0.1,2.8,2c-2.7,1.4-0.5,2.7,2,6.1c-1.2-2.5-2-2.7-2.5-0.6c2.4,0.3,4.5,0.8,7.3-1.7
	c-1.5-0.2,7.5,7.7,10.6,8.9c-0.5,0.9-1.3,1.5-2.3,1.9c1.3-0.2,1.9,0.3,2,1.5c2.2-2.1,5.8-2.1,9.6-0.7c-0.5-1.1-0.9,0.3-0.3,2.3
	c-0.8,0.5-1.2-0.2-1.8-0.2c-1.9,3.8,8.2,1.9,6.6,1.6c-1.2,1.4,11.6,5,11.8,4.8c-1.1-0.8-2.3-1.5-3.8-1.8c2.2-1.5,7.1,2.3,8.5,3.3
	c-0.8-0.4-1.7,0.3-2.4-0.5c-0.7,3.8,4.2-1.7,3.6-1c2.6-0.5,3.2,4.1,6.7,0.2c1.5,1.5-2,1.2-0.1,2.6c0.5-1.9,1.5-1.3,2.3-2.5
	c1.3,1.2-1.6,1.2-1.2,2c1.3,0.1,1.6,0.1,2.5-1.2c0.7,0.6,11.8,1.4,8.8,4c-1.6-0.9-0.8-0.1-4.2-0.7c1.2,0.2,2.4,0.5,3.6,0.7
	c-0.2,0.3-0.4,0.7-0.5,1c-2.9-1.6-4.2-1.5-3.9,0.6c-1.4,0.7-6.7-1.4-8.1-1.4c-2.2,2.6,0.6,2.8,1.5,3.6c-1.2-1.5-0.4-1.9,2.3-0.9
	c0.4,2.6-15.7,0.7-17.4,0.5c1.2-4.6,4.8-4.6,10.8,0c0.7-1.1-14.1-4.9-13.4-5.5c-6.5-5.3-3.9,1.4-8.1-2.7c-3.2,3.2,1.2,2.2-2.2-1.3
	c0.5,2.7-1.4,2.4-5.9-0.9c1.2-0.7-0.6,6.8-2.3,3.3c-0.5-2.5,1.6-0.7-2.1-0.6c-0.7-1-0.9-2.6-1.5-3.4c-0.1,0-10.8-4.7-14.5-9
	c0.7-1.2,2.1,1.2,3.6,0.2c-1.5-1.9-16.8-5.8-16.8-5.7c-2.8-0.8-3.3-2.4-1.7-4.8c-1.4,3.2-2.9,3.1-4.5-0.1c0-0.8,1.5,0.2,2.2-0.1
	c0,0.2-3.1-4.2-3.1-3.8c0.1-0.2-1.5-2.4-1.4,0.3c-4.4-2.9-16.5-20.6-11.4-19.7c-3-2.7-6.1-5.8-9.1-0.8c-0.5-1.2-1-2.4-1.6-3.6
	c0.3,1.9,0.5,3.8,0.4,5.7c-6,0.4-4.7-11.7-4.4-13.7c-0.8-0.1-6.5-1.1-6.2-1.1c-2.6-0.6,2.7,1.4-1.8,0.1c1.2-3.7-2.4-1.5-1.6-7.8
	c-1.8-0.3-2.6,0.5-2.4,2.4c2.1,0.9,1.4,1.1,2.9,5.3c-1.8-0.9-1-3.6-2.7-4.5c0.2,0.9,0.5,1.9,0.4,3c-3.2-1.6-0.4-4-2.4-4.2
	c0,0.4,1.8-4.5-1.9-2.7c0.1-2,2.7-5.9-0.4-8.2c0.5-0.9-0.1-6.6-4.6-4.8c0-2.9,0.1-0.9-1.1-3.8c1.1-2.3,3.4,1.5,3.1,1.5
	c1.3-0.9-2.9-11.4-4.7-11.8c2.4,1.4-1.1,4.1-1.2,5.3c-1.2-0.6-1.3-1.4-0.5-2.2c1,0.3-3.3,2.9,1.2,2.1c-0.4-0.2-1.2,11.7-0.2,14.1
	c-1.3,2.1-1-0.4-1.1,3.4c-1.2-0.1,3.4-0.3,2.7,0.1c-3.1,3.1,2.6,8,0.3,10c-3.3-3.7-1.4-5.7-5.2-7.8c0.4,0.1,8,12.9,8,13.1
	c0.6,0,3.4-2.4,3.2,1.1c-6-0.9,1.8,4.3-2,3.3c2.4,5.5,4.3-2.7,5.2,7.7c-3.1-1.8-4.3-5.8-6.7-8c-2.8,1.5,3.6,1.7-1.8,1.9
	c0.2-1.1,0.5-2.2,0.8-3.3c-3.8-1.6-1.5-5.4-7.2-8.2c-0.1-3.1,3.3,2.1,4.3,1.3c-1-3.1-3.6-3.7-6.6-4.8c0.2-1.7-3.1-22.3-8.5-14.1
	c3.2,0.2,1.8,2.4,4.4,3.3c-1.1,0.4-2.1,0.3-3.1-0.2c-1.2,2.8,2.9,5.3,1.7,8.1c-1.2-0.7-1.2-1.9-2.3-2.7c0.8,5.5,2.6,8.8,2.4,12
	c0.1-2.2,1-3.3,2.8-3.5c1.5,2.3-1.6,3.1,1.8,4.2c-1,2-2.6-1.8-3.2-1.8c1.9,4.6,17,24.6,15.4,27.5c4.3-0.9,7.4,4,8,11.1
	c4.5,1.6,4.7,3.5,10.1,8.4c3.2,2.9,20.4,15,17.9,16c3.4,0.8,6.5,2.3,9.3,4.4c4-3.2-9.1-1.2,3.6,1.2c1.6-1-1.1-0.7-1.6-1.6
	c1.5-0.5,13.2,8.4,18.5,10.3c0.5,0.9-1.2,0.5-1.4,0c1.6,1.5,3.3,1.5,5.1-0.1c0.6,1.2,0.2,1.7-1.3,1.7c2.3-0.1,4.5,0.2,6.7,0.9
	c0.6,0.6-1.4,1.2-1.4,0.1c0.8,0.8,1.7,1.6,2.5,2.4c-0.2,0-2.5,0.4-2.9,0.7c0.5,0.8,17.2,0.7,20,0c1.2,2.7,1.6,2.7-1.3,2.9
	c0.3-2.5,16.3,4.4,10.9,2.5c4.2,2.9,26.9,7.6,31.8,1.6c0.1,0.8-0.2,1.4-0.9,1.8c13.3,0.2,27.6-1.8,39.4-6c-1.2,2.4,0.3,2.5,4.4,0.1
	c-0.9,1.5-1.7,0.2-1.9,1.9c2.9-1.4,3.7-1.1,2.3,1c-1.4-0.5-2.6-0.2-3.6,0.7c1.7-0.9,3.8,1.1,1,2.6c-0.7-0.4-0.1-1.2-0.1-1.8
	c-3.5-0.8,0.5,5.3-5.4,2.2c1.6-0.2,4.1-3.2,4.1-3.2c1-1-2.2-2.2,0.3-1.7c-1.4-0.5-9.4,1-9.1,3.5c1.5-0.4,3-0.9,4.4-2
	c3.5,7.3-7.9,1.2-7.9,1.2c-0.9,0.8-1.9,1.3-3.1,1.6c1-0.4,4-0.4,3.2,1.3c-0.8-0.5-4.7-1.3-5.6-1.6c-1.8,4.1-4.6,3.2-9.9,5.2
	c1.1,1.1,2,0,3.1,0.4c-1.8,1.1-5.2,2.2-6.1,0.1c5.7,0.7-17.6-3.1-18.4-1.6c-0.6-0.3-4.6,0-5.5-2.9c0.2,1.2-0.1,2.2-0.8,3.1
	c1-0.6,2.2-0.9,3.4-0.9c1.4,3.7-8.9,0.3-9,0.3c-0.8-1.5,1.2-0.8,2.1-1.4c-0.9-0.7-33.5-0.6-33.1-1.1c-2.3-4.4-3.8,0.5-9.2-2.8
	c0.7-1.7-1-2.3,2.1-3.4c-0.6,0-0.9-0.3-1.1-0.8c-4.1,1.1-3.6-3.1-7.8-2.3c2.6,0.3,4.1,1.6,4.5,3.9c-3.4-1.8-5.3-0.9-9.9-3.5
	c-0.6,0.5,1.5,1.5,2.3,1.4c-0.3,2-3.3,0.6-4.5-0.3c-0.4-1.5,2.2,0.7,1.6-0.5c-3.5-5.9-17.7-6.6-23.4-9.3c-4.2-2-18.2-10.2-19.9-12.9
	c0.5-2.2,2.4,0.9-0.3-1.2c-0.4-5.1-14.8-6.2-16.1-11.6c0.1-1.4,1.4,0.2,2.9-0.1c-0.9-1.6-6.8-4.9-8.5-5.4c1.1-0.8,3.7,1.5,4.7,2.3
	c-1.3-1.8-12.4-18.1-16.4-15.2c-0.1-1.2,3.8-0.3,4.5,0.2c-1.7-2.1-3.2-0.7-3.3-3.2c-0.1,0-2.7-0.5-3.6-0.6c1,2.5,7.7,14.2,9.7,14.5
	c0.3,3.9-24.7-30.3-23.6-29.9c0.5-1.1,0.9,0.9,2,0.8c-2.8-4.3-2.8-3-6.3-4.9c2.1,3,1.4,4.3,1.1,6.3c3.3,2,7.6,2.6,2.8,4.2
	c4.1,10.3,20.6,24.8,24.4,38.4c-2.6-1-2.8-1.5-3.9-3.6c-1.4,0.1-0.2,0.9,0.2,1.7c-2.1-0.3-2.7-2-3.8-3.2c-0.1-0.8,1.7,0.6,1.9,1.2
	c0.5-1.3-3-3-3.9-4.6c-0.2,1.2,1.3,1.1,1.1,2.3c-2.1-2.8-4.2-5.4-4.3-5.6c-6.8-1.8-20-20.4-21.9-29c3,2.9,2.9,2.2,2.8-1.8
	c-1.5-1.5-0.3,2-0.3,2.1c-1.2,1-11.1-13.1-10.6-15.2c0.6-1,1.2,1,1.9,1.1c-2.8-4-9.6-14.9-8.6-19.3c0.9,0.6,1.7,1.2,1.5,2.1
	c0.5-0.9-0.5-4.5-0.9-6.3c0,0-3-0.2-4.7,0.5c-1-2-0.2-3.7,0.1-6.2c1.5,0.8-0.2,2.5,1.4,3.3c2-3-1.5-3.2-2-6
	c-0.4,0.7,1.3-2.1,1.5-2.4c-1.4-1-1.3-2.6-3.1-6.2c0.1,0-0.6,3.2-0.7,3.3c-0.2-1.5-0.8-2.9-1.8-4c0.1,0-0.6,3.6-0.7,3.4
	C18.5,264.1,17.6,263.6,16.3,264.4C16.5,265.5,17.2,262.5,16.3,264.4z M80.7,389.8c1.8,0,2.3,1.7,3.3,2.8
	C82.4,392.4,81.5,391.2,80.7,389.8z M190.7,442.3c-2.6,1.8-5.6,1.9-9.3,0.5C183.3,441.4,189,439.8,190.7,442.3
	C189.3,443.3,189.4,440.4,190.7,442.3z M63.5,153.5c0.1,1.3,1.2,1.6-0.4,2.2C62.4,155.4,62.4,153.8,63.5,153.5z M88.2,166.2
	c-0.5,3.2,2.6,6.2-2.8,5.4c0.3,1.6,1.6,1.3,2.7,1.5C83.8,177.4,84.2,163.9,88.2,166.2C87.9,167.8,87.3,165.7,88.2,166.2z
	 M217.8,90.7c1.1-0.8,1.9,0.5,2.9,0.1C219.7,91.7,218.7,91.4,217.8,90.7z M295.7,118.2c-0.2,1,1.3,1.9,0.2,2.6
	C296.2,119.4,294.1,118.9,295.7,118.2z M333.4,167.4c-0.1-0.7-1.2-1-0.4-2.1C334,165.5,334.5,167.3,333.4,167.4z M132.6,320.3
	c-0.8-0.6-1.7-1.2-1.9-2.5C131.3,318.4,133.3,319.2,132.6,320.3z M141.2,345.8c-0.6,1-4.6-1.6-3.1-2.6
	C138.6,344.9,140.7,343.9,141.2,345.8z M83.9,278.3c1.5-0.3,2,0.2,1.3,1.6C84.2,279.6,83.3,279.2,83.9,278.3
	C84.4,278.3,83.3,279.2,83.9,278.3z M158.7,391.6c-2.9-0.8-4.2-1.3-6.6-2.4C154.6,389.1,156.7,390,158.7,391.6z M101.9,362.8
	c-0.7-0.7-3.1-2.1-2.4-2.8C100.3,360.6,102.7,361.9,101.9,362.8z M79.3,339.7c-0.3,0.3-2.4,0.6-2.1-0.8
	C77.4,338.1,79.5,339,79.3,339.7z M23,275.6c0.1-0.5-2.3-2.8-1-4.1C23.6,272.4,23.8,275.4,23,275.6C23.1,274.8,23.8,275.4,23,275.6z
	 M36.6,325c-0.6-0.8-1.9-1.3-1.5-2.6C37.1,323.2,36.6,324.8,36.6,325z M62.1,370.9c-0.8,0.6-2.6-1.2-2.7-2.7
	C61,368.4,61.5,369.7,62.1,370.9z M70.2,378.8c-1.4-0.4-3.6-3-2.7-3.9C68.1,376.5,70,376.8,70.2,378.8z M70,293.3
	c0.7,1.7,2.3,3.1,2.6,5C70.6,297.4,69.5,294.5,70,293.3z M87.6,413.6c-0.9,0.9-3.3-0.8-4-2.3C85.6,411.1,86.7,412.3,87.6,413.6z
	 M69.9,354.8c-0.8-0.9-2.2-1.2-2.4-2.6C68.7,352.4,71,354.1,69.9,354.8z M74.1,291.3c0.5-0.7-1.2-1.8,0.2-1.9
	C74.4,290.2,75.8,291.3,74.1,291.3z M75.7,292.6c-0.6,0.6,0.8,3.2-0.8,2.9C74.7,294.9,72.8,290.9,75.7,292.6
	C74.6,293.7,75,292.2,75.7,292.6z M75.2,298.8c-0.6-0.7-1.8-1.2-1.3-2.5C75.5,296.6,75.6,297.6,75.2,298.8z M77.6,345.1
	c0.8,0.2,1.4,0.5,1.8,1.1c-1.7-0.5-2.8,1.9-3.7-0.2C76.2,344.7,77.8,346.6,77.6,345.1C78.4,345.3,77.8,346.6,77.6,345.1z
	 M80.4,305.9C77.6,305.2,79.5,303.6,80.4,305.9C79.9,305.8,80.1,305.3,80.4,305.9z M86.1,284.3c1.4-1.1-0.5-0.9-0.3-2
	C87.1,281.4,88.1,285.1,86.1,284.3z M83.1,350c1.1,3.5,6.1,4,6.9,6.8c-1.1-0.8-12.7-4-11.1-7.8c0.1,0.3,1.5,1.5,1.3,0.6
	c-1-0.6-1.7-1.5-2-2.7C78.7,346.8,81.1,351.8,83.1,350C83.8,352.4,82.1,350.9,83.1,350z M94.1,398.1c-0.8,1-2.5-0.5-3.4-1.4
	C91.4,395.9,93.5,396.9,94.1,398.1z M80.7,342.4C81.1,347.1,78.1,341,80.7,342.4C80.7,342.9,79.3,341.7,80.7,342.4z M88.2,293.1
	c-2.3-0.2-0.1-3.3-0.4-3.8C90.1,290,87.6,291.7,88.2,293.1C86.8,293,87.6,291.7,88.2,293.1z M84.6,314.3c-1.1-0.2-2.5-0.3-2.1-1.6
	C83,313.3,84.9,313,84.6,314.3z M86.5,299.8c0.7-1.5,3.7-0.3,3.5,1.2C88.1,302.3,88.1,299.7,86.5,299.8
	C87.2,298.3,87.6,299.8,86.5,299.8z M96.1,366.8c-2.4,3.2-8.9-12.9-7.2-9.3c-0.5,0,9.4,4.1,10,6.9c-1.6,0.9-4.9-1.5-6-2.2
	c0.6,0.6,6.6,4.3,6.8,5C97.5,365.6,97.3,366.9,96.1,366.8C96.9,365.7,97.3,366.9,96.1,366.8z M86.4,315.4
	C91.5,316.2,82.7,314.7,86.4,315.4C87.1,315.5,86,315.4,86.4,315.4z M124.8,434.7c0.3,1-2.8,0.8-3.1-0.5
	C122.8,434.3,124.4,433.3,124.8,434.7z M114.5,411.5c-1.8,0.2-2.8-0.4-3-1.8C112.4,410.5,113.9,410.1,114.5,411.5
	C113.7,412.1,113.9,410.1,114.5,411.5z M92.3,307.4C89.7,305.1,92.5,306.6,92.3,307.4C92.3,307.4,92.7,305.9,92.3,307.4z M94.1,319
	c-2.4-0.5-1.9,3.8-3.2-2C91.7,317.8,93.1,318.3,94.1,319C93.4,318.8,93.1,318.3,94.1,319z M93,307.5c2.3-0.1,3.5,2.3,1.5,2.9
	c-0.1-1.3-2.8-2.3-1.4-3.6L93,307.5z M94.7,325.1c1.1-1.6-1.2-1.5-1.5-2.8C95.5,321.3,96.7,324.4,94.7,325.1z M95.8,327.1
	c1.4,2.3-2.6,0.8,1.6,0.5c0.1,3.6-2.1,1.5-2.3,0.6c-1.1-0.4-1,0.4-1.9,0.2C93,326.7,95,327.6,95.8,327.1
	C96.4,328,95,327.6,95.8,327.1z M96.7,337.6c-1.7-0.2-2.5-1.2-2.5-2.9C95.6,335,96.3,336.1,96.7,337.6z M95.5,310.6
	c1.3,0.6,0.9,2.7,2.3,3.3C95.2,313.2,94.4,312.1,95.5,310.6C96.9,311.2,95.5,311.1,95.5,310.6z M104.6,369.6
	c-2.1,0.2-3.7-0.8-4.2-2.8C102.3,367.1,103.3,368.6,104.6,369.6z M97.6,316.4c-0.1-1-1-1.3-0.9-2.4C97.8,314,98.6,315.9,97.6,316.4z
	 M131.9,421c-2.3-0.1-3.8-2-5.9-2.4C127.4,417.3,130.3,419.8,131.9,421z M99.6,307.4c0.5-0.7,5.7-0.2,1.2,2.3
	c3.8-0.4,3.5,3.8,4.2,6.2c-3.1,0.6-1.6-3.6-4.2-2.8c-0.4-0.5-2.9-6.5-2.4-7.2C98.5,307.3,99.1,306.4,99.6,307.4
	C100,306.9,99.1,306.4,99.6,307.4z M99.6,325.9c-1.2,0.6-2.2,0.7-2.7-1C98.2,326.4,98.5,324.4,99.6,325.9z M99.4,312.2
	c0.1,0.7,0.7,1,0.6,1.9C98.8,314.1,98.1,312.3,99.4,312.2z M108.5,372.3c1.5,2.2,4.4,4,7.4,4.7c-2.5,0.2-7.9,0.5-8.8-2.2
	c1.3-0.1,1.8,1,3.3,0.6C110.5,374.3,108.1,373.3,108.5,372.3C108.8,372.8,108.1,373.3,108.5,372.3z M108.6,373.9
	c-1.4,0-2.2-0.8-2.5-2.3C107.4,371.7,107.8,373,108.6,373.9z M102.3,318.7c0.1,0.3-2.2,4.3-2.2-0.2
	C100.6,318,101.9,318.1,102.3,318.7C102.7,319.9,101.9,318.1,102.3,318.7z M145.9,433.1c-1.3,0.3-2.5,0.5-3.3-0.5
	C143.9,432,144.9,432.6,145.9,433.1z M102.8,316.1C102.9,317.1,100.6,317.7,102.8,316.1C102.9,316.8,102.8,316.1,102.8,316.1z
	 M107.4,347.1c0.2,2.7-0.8,2.3-3-1.2C106,345.7,105.9,347.4,107.4,347.1C107.6,347.8,105.9,347.4,107.4,347.1z M104.1,321
	c0.3,1.7,2.3,1.7,2.6,3.4C106.8,324.5,101.5,321.4,104.1,321C104.4,322.7,103.7,321.1,104.1,321z M104.7,329.6
	c1.8-0.5,2.1,0.2,0.9,1.9C105.7,330.3,104.4,330.7,104.7,329.6z M105.3,318.1c0.7-0.2-0.1-2.2,1.2-1.8c3.4,3.5-5.6,1-2.2,0.2
	C104.9,316.9,104.8,317.7,105.3,318.1C106,317.9,104.8,317.7,105.3,318.1z M118.4,380c-1-1.2-1.7,0.3-2.8-1.3
	C116.9,378.2,119.4,378.9,118.4,380z M109.7,335.2c-0.9-0.5-2-0.9-2.5-1.9C108.8,333.1,109,334.4,109.7,335.2z M162.7,438.8
	c-1.1,0.2-2.2,0.6-2.9-0.4C160,437.5,161.9,437.5,162.7,438.8z M112.9,344.6c-0.6-0.9-1.8-1.1-2-2.6
	C112.2,341.8,113.5,343.9,112.9,344.6z M125,383.6c1.5,0.5,2.7,1.6,4,2.6C127.3,386.5,123.4,385,125,383.6z M116.8,320.6
	c-0.3,0-1,0-1.8,0.1c-0.4,1.9,1.4,2.3,0.3,4.1c-0.4,0.7-4.2-6.4-4.3-6.6c-0.6,0-0.2,1-0.7,1.1c-0.6-2.6,1.1-2.4,3.3-3.2
	c-1,0.7-1,1.4-0.1,2.2c-0.1-3.4,1.1,0.2,2.1-1.5C116.6,317.7,116.1,319.1,116.8,320.6C115.5,320.6,116.4,319.9,116.8,320.6z
	 M116.9,332.3c1.1-1.3,4.6,4,4.1,5.2c1.2,0.3-8.4-2.9-7.9-2C115,335.8,118.3,334.6,116.9,332.3C117.5,331.6,118.3,334.6,116.9,332.3
	z M176.9,440c0.2,0.6-2.3,0.8-0.8,1.7c2.4-0.4,1.9-3.4,4.4-0.8c-5.2,5.5-5.9,1.9-11-0.3C171.5,440,174.1,439.3,176.9,440
	C177.1,440.6,174.1,439.3,176.9,440z M132.3,387.2c-1,0.7-2.1,0.4-3.1-0.7C130.4,386.5,131.3,386.9,132.3,387.2z M114.7,314.7
	c-0.7,0-0.3,1.2-1.1,1.1C112.6,315.1,114.2,313.5,114.7,314.7z M118.8,338.1c-0.9-0.1-3.7,1.1-3.6-0.8
	C116.6,336.4,117.8,336.7,118.8,338.1z M134.6,388.8c0.6,0.9,1.5,1,0.4,1.6c-0.4-0.7-1.4-0.2-1.7-1.3
	C133.8,389,134.2,388.9,134.6,388.8C135.2,389.7,134.2,388.9,134.6,388.8z M125,360.3c0.8,1.9-2.1,1-2.5-0.1
	C123.6,359.9,123.9,360.8,125,360.3z M116.9,323.5c0.4,0.3,0.4,1.8-0.6,1.9C116.2,324.5,116.2,323.6,116.9,323.5z M137.2,388.2
	c-0.6,0.8-0.1,1.1,1.5,0.9c-1.4,0.3-2.5,0-3.3-0.9C135.9,388.2,136.8,387.8,137.2,388.2C136.9,388.3,136.8,387.8,137.2,388.2z
	 M138.3,383.4c-0.6-1.2-2.4-0.1-3-1.3C136.5,381.7,139,382.3,138.3,383.4z M122,306.8c0.6-0.3-0.4,3.4-2,0.1
	C120.8,306.5,121.5,306.4,122,306.8C121,307.2,121.5,306.4,122,306.8z M204.6,444.2c-1.2,0.9-2.2,0-3.3-0.2
	C202.5,443.2,203.6,443.3,204.6,444.2z M141.4,369.7c-1,0.4-1.5-0.1-1.8-1.1C140.5,368.2,141,368.7,141.4,369.7z M160.5,400.3
	c1.3,1.2-1,2-1.7,0.6C160,400.5,159.2,400.1,160.5,400.3z M145.6,372.9c1.6-0.4,4.2,1,4,2.5C149.1,374.2,144.4,374.5,145.6,372.9
	C147.2,372.5,145,373.7,145.6,372.9z M225.9,445.3c-1.8,0.4-3.7,0.8-5.4-0.1C222.2,444.5,225.4,443.9,225.9,445.3z M134.6,323.5
	c-0.2-0.6-1.4-1.7-0.6-2.4C134.6,321.1,135.4,322.9,134.6,323.5z M145,346.6c0.6,5,2.2-0.2-1.5,2.4C143,346.3,142.3,347.9,145,346.6
	C145.1,348.2,143.6,347.3,145,346.6z M173.1,394.2c3.8,3.7-2.8,0.4-2.9,0.4C171.4,393.7,172,395,173.1,394.2
	C174.2,395.3,172,395,173.1,394.2z M148,334.4c-1.2,0.3-2.3,0.5-2.9-0.2C146.3,333.9,147.7,333.1,148,334.4z M159.1,365
	c-0.9,0.5-1.4,0-1.8-0.9C158.2,363.6,158.7,364.2,159.1,365z M154.9,353c-1.2,0.3-2.3,0.3-2.8-1C153.3,351.8,154,352.5,154.9,353z
	 M159.8,359.9c1,1.4,2.9,0.6,4.2,1.4c-0.6,0.6-5.4,0.5-5.8-0.4C158.5,360.5,158.9,360.1,159.8,359.9
	C160.8,361.3,158.9,360.1,159.8,359.9z M179.1,384.3c-1.8,0.8-3.3,0.3-4.8-0.3C176.1,383.2,177.6,383.8,179.1,384.3z M153.9,334.9
	c-2.5,0.1-2.6-0.8-0.4-2.5C154.2,333.5,153.5,333.9,153.9,334.9C153.1,335.1,153.5,333.9,153.9,334.9z M150.1,334
	c0.3-1.6,3-4.3,2.9-1.4C151.6,332.4,151.2,333.4,150.1,334C150.3,332.7,151.2,333.4,150.1,334z M153.2,337.1c0-1.2-2.1-0.7-1.3-1.8
	c4.3,2,0.9,4.2-0.7,2.5C151.7,337.5,153.1,338.1,153.2,337.1C153.2,335.9,153.1,338.1,153.2,337.1z M164.1,357.5
	c-0.5-0.7-1.5-0.1-1.9-1.2C163.1,355.8,164.7,356.9,164.1,357.5z M161,356.5c1-0.3-0.4-1.4,0.9-1.6
	C162.9,355.7,161.9,357.2,161,356.5z M165.5,363.1c1.8-0.8,3.2-0.4,4.3,1.3C168.7,364.5,164.6,366.6,165.5,363.1
	C166.4,362.5,165.4,363.5,165.5,363.1z M208.4,407.7c-0.7,0.8-3.1,2.3-4,1.2C205.1,407.7,206.9,407,208.4,407.7
	C207.3,408.8,206.9,407,208.4,407.7z M259.9,439.4c1.1,0.1,2-0.7,2.2,0.3C261.2,441,258.9,440.4,259.9,439.4z M155.7,336.8
	c-0.7-0.2-1.3-0.7-1.6-1.6C155.1,334.3,156,336.5,155.7,336.8z M201.5,398.7c-1.4,0.5-2.7,0.4-4-0.3
	C198.8,397.9,200.2,398,201.5,398.7z M163.7,342.2c-1.9-2.5-2.4,0.5-3,1c-0.9-0.3-1.3-1-1.3-2.1
	C161.2,340.2,163.8,340.5,163.7,342.2C163.3,341.7,163.8,340.5,163.7,342.2z M192.7,388.7c1.3,0.5,2.9-0.8,4.1,0.7
	C194.1,391.3,192.8,391.1,192.7,388.7C194,389.2,192.2,389.1,192.7,388.7z M174.1,362.2c0.5,0.2,1,0.6,1.3,1.4
	C174.4,364.6,173.2,362.7,174.1,362.2z M167,343.7c-0.7,1.3-1.4,1.1-1.9-0.6C166,342.7,166.6,342.9,167,343.7
	C166.6,343.9,166.6,342.9,167,343.7z M179.4,363.9c-0.8-0.1-2,1.3-2.6,0.2C177.8,363.5,178.6,363.4,179.4,363.9z M186.5,369.8
	C182.6,372.8,184,366.1,186.5,369.8C185.2,370.8,185.8,368.6,186.5,369.8z M180.5,368.1c0.9,1.3,2.4-0.6,3.2,1.1
	C182.5,370.5,180.2,369.4,180.5,368.1z M169.3,347.7c-1,1-1.3-0.3-1.7-1.1C168.5,346,168.8,347.3,169.3,347.7z M183,365.7
	c-0.9,0.9-1.5,0.1-2.3,0.1C180.9,364.7,182.4,364.7,183,365.7z M186.6,364.3c-0.9,0.7-1.8,1.4-2.7,2.1c-1.8-0.3,1.2-3.7,0.9-3.2
	c1.1,0.6,2.2,1.3,3.3,1.9C187.2,366.8,186.7,366.6,186.6,364.3C185,365.1,186.9,365,186.6,364.3z M190.3,367.8
	c-2,0.8-3.9,0.2-5.6-0.4C185.4,365,188.5,366.8,190.3,367.8z M171.1,339.9c-1.3,0-2.2-0.9-3.3-1.4
	C169.1,338.4,170.3,338.5,171.1,339.9z M175.9,349.4c-0.3,0.6-0.7,1.9-1.6,0.9C174.5,350,175.4,348.7,175.9,349.4z M175.8,343.3
	c-1-0.8,1.4,3.1,1.2,2.2c-1.6,0.8-2.7-0.1-3.9-0.6C173.7,343.9,174.9,344.7,175.8,343.3C176.9,344.2,174.9,344.7,175.8,343.3z
	 M192.1,371.1c2.1-1.3,3.8,1.3,2.9,2.7C194.2,372.7,194.4,372.2,192.1,371.1z M192.9,367.8C188.7,368.8,192.7,367.4,192.9,367.8
	C192.9,367.8,192.4,366.3,192.9,367.8z M184.3,354C185.3,355.2,180.4,356.6,184.3,354C184.9,354.7,183.8,354.4,184.3,354z
	 M181.3,347.3c0.3,1,0.1,1.9-0.9,2.7C179.5,348.8,180.4,347.2,181.3,347.3z M191.9,364.9c1-1.1,2.2,0.5,2.1,1.3
	C192.4,367.2,193,365.8,191.9,364.9z M185.5,348c1.3,2.1-2.1,1.9-3.3,0.1C183.4,347.4,184.2,348.9,185.5,348
	C185.8,348.5,184.2,348.9,185.5,348z M191.9,351.7c-1.3-1.9-4.6-0.2-5-2.2C188.4,350,192.5,349.1,191.9,351.7z M190.4,351.5
	C187.4,353.7,189.2,350.7,190.4,351.5C189.9,351.9,189.4,350.8,190.4,351.5z M199.3,351.9c0.5,1,1.2-0.1,1.7,0.9
	C199,353.7,198.4,353.4,199.3,351.9C199.8,352.9,199,352.3,199.3,351.9z M223.1,369.1c-1,0.2-3.8,1.6-3.1-0.6
	C220.8,369.6,223.1,368,223.1,369.1z M257.7,390.6c1.7,0.3,0.2,2.3-1,1.8C257.5,391.7,256.6,391.4,257.7,390.6z M222.1,367.9
	C219.6,371.2,221,361.5,222.1,367.9C221.5,368.7,222,367.2,222.1,367.9z M222.9,365.5c1.5,0.6,0.3,2.5-0.7,1.8
	C222.1,366.8,221.8,366.2,222.9,365.5z M211.7,353.8c0.8,1.4,1.5-0.5,2.3,0.7c-1.3,0.9-2.6,0.8-3.9,0.7L211.7,353.8z M222.8,363.5
	C219.8,364.9,221.6,363.3,222.8,363.5C222.8,363.5,222.1,363.4,222.8,363.5z M228.1,368.2c1.3-1.5,1.3,0.7,2.9,0.7
	C230.1,369.4,228.3,369.2,228.1,368.2z M231.9,369.1l1.3,0.9c-0.5,1-2.5,1.6-2.3,0.3C231.7,370.7,231.8,369.3,231.9,369.1z
	 M267.8,387.2c-0.7,0.4-1.6,0.1-2.4,0c4.3-1.8,8.7-3.4,13.4-4.1c-0.6,2.1-2,1.9-2.2,2.8c-1.8,0.7-4.9-2.1-6.7,1.2
	c0.9-0.1,1.7-0.6,2.8,0.1c-2.5,5.3-1.2-0.9-3.3,0.6c0.3,0.6,0.3,1.2,0.2,1.8C267.2,390.4,266.7,389.6,267.8,387.2
	C267.1,387.6,268.5,387.8,267.8,387.2z M227.8,364.7c0.3,0.2,7.5,1.3,2.8,3C229.5,367.3,226.4,366.1,227.8,364.7
	C229.2,365.9,227,365.4,227.8,364.7z M217.6,354.5c-0.8,0.8-1.7,1.9-2.6,1.1C215.9,355.2,216.7,353.7,217.6,354.5z M240,373.1
	c-0.5,1.4-1.1,1.6-2,0.6C238.6,372.8,239.2,372.4,240,373.1z M247.5,365.4c0.4-0.3,0.9-0.4,1.4-0.1c0.4-0.4-17.3,2.1-15.9,3.1
	c4.6-4.3,8.5-5.1,9.9-4.4c3.1-0.9,3.7-1.7,1.8-2.5c1.2-0.5,2.5-0.5,3.7,0c-2,0.2-2.5,1.2-1.7,3c-0.3-1.9,3.6-1.6,3.9-0.9
	C249.6,363.9,246.4,363.7,247.5,365.4C247.9,365.1,246.4,363.7,247.5,365.4z M248,362.7c-0.5-1.8,2.9-1.8,3.5-1.1
	C250.6,362.7,249.3,362.6,248,362.7C247.9,362.1,249.3,362.6,248,362.7z M217.6,355c1.3-0.3,2.6-0.3,3.9,0.1
	C220.3,355.7,218,356.5,217.6,355z M229.1,363.2c-0.6-0.2-1,0.7-1.7-0.3C227.7,361.5,229.5,362.5,229.1,363.2z M234.3,363.4
	c-0.6,0.8-2.6,1.4-2.5,0C232.7,363.7,233.5,363.1,234.3,363.4z M223.8,354.7c0.1,0.8-1.2,1.4-2,0.6
	C222.4,354.4,223.1,354.5,223.8,354.7z M282.5,382.5c0.2,1.2-1.8,0.9-1,2.3C279.7,384.7,281.3,382.2,282.5,382.5z M285.8,380.8
	c0.7,1.6-2,2.9-2.9,2.7C283.3,382,284.3,381.1,285.8,380.8C286.2,381.9,284.4,380.6,285.8,380.8z M241.8,362.4
	c-0.6,0.3-2.5,1.6-2.5,0.1C240.1,362.7,240.8,361.8,241.8,362.4z M235.4,355.4c-0.5,0.8-1.1,1.2-1.8,0.6
	C234.1,355.2,234.7,354.8,235.4,355.4z M253.5,362.6c0.8-0.1,1.4-0.5,2.2-0.6C251.4,369.3,254,362,253.5,362.6
	C254.3,362.5,252.9,363.3,253.5,362.6z M259.9,363.2c2.9,1.4-0.7,3.9-1.5,3.2C258.9,365.3,259.4,364.2,259.9,363.2
	C260.5,363.5,259.2,364.3,259.9,363.2z M255.4,359.7c0.5,0.3,1.3,0.5,1.2,1c-1.4-0.1-2.3,1.7-3.9,0.5
	C253.8,360.1,254.8,361,255.4,359.7C255.8,360,254.8,361,255.4,359.7z M380.6,369.5c3-1.3-0.8,3.1-0.7,3
	C379.4,372,379.8,370.3,380.6,369.5C382.1,368.8,379.8,370.3,380.6,369.5z M299,373.6c0.7-1,1.8-1.3,3.2-1.2
	C300.2,378,301.7,372.8,299,373.6C299.8,372.6,301,373,299,373.6z M266.4,361.8c-0.4,0.1-7.5,0.5-8.2-0.3c5.2,0.7,9.7-4.7,12-3.6
	C271.2,360.3,266.6,360.1,266.4,361.8C265.4,362.2,266.6,360.1,266.4,361.8z M241,346.1c1.5,0.8,1.9-1.8,2.6-2.1
	C246.1,346.1,240,348.3,241,346.1C242.5,346.9,240.7,346.7,241,346.1z M264.4,357.7c1.3,0,2.4-0.4,3.7-0.6
	C269.6,355.1,263,361.2,264.4,357.7C265.7,357.7,263.7,359.4,264.4,357.7z M250.7,348c0.2,0.6-0.5,2.2-1.4,1.7
	C249.8,349.2,250,347.6,250.7,348z M247.9,343.4c-1.7,1-1.8,1.9-0.3,2.7c-0.8-0.1-2.7,0.9-3-0.5C245.5,344.6,246.2,343,247.9,343.4
	C247.6,344.5,246.2,343,247.9,343.4z M271.6,357.7c0.9,0.9,2-1.6,2.1-0.1C273.1,358.2,271.4,359.5,271.6,357.7z M262.9,350.8
	c-0.9,0.7-1.9,1-2.9,1.6C259.9,351.7,262.4,349.7,262.9,350.8z M250.9,344.8c0,0-2.6,2.7-2.7,0.4C249.2,345.7,249.7,344,250.9,344.8
	C250.6,345.2,249.7,344,250.9,344.8z M282.3,352.3c-5.6,0.9-7.2,2.7-4.8,5.4c-1-0.9-2.1-1-3.2-0.3c0.9-1,1-2,0.2-3.2
	C277.4,354.6,280,353.9,282.3,352.3C281.1,353.7,280.9,352.4,282.3,352.3z M398.1,347.7c-1.1,0.9-0.8,3.1-2.5,3.5
	C396,350,397.3,346.7,398.1,347.7z M319.1,360.8c1,0.3,1.5-0.1,1.6-1.2c2,0.5,0.2,4.1-1.9,4.5C319.9,362.1,319.8,362.1,319.1,360.8
	C320.2,361.1,319.8,362.1,319.1,360.8z M255.8,343.8c-1.3,1-2.9,0.9-4.3,1.4C252.1,343.4,253.5,342.9,255.8,343.8
	C254.6,344.8,254.4,343.5,255.8,343.8z M290.5,357.5c-1.1,0.6-3.4,2.2-4.2,1C287.7,358.6,289.6,356.1,290.5,357.5z M285.6,354.4
	c1.9,0.3,2.8-1.4,4.6-1.3c-0.9,1.9-4.1,2.9-5,2.4C285.8,355.5,285.8,354.7,285.6,354.4C287.5,354.7,285.8,354.7,285.6,354.4z
	 M257.6,342.7c1.2,1.3,0.7,1.7-1.4,1.2C256.5,343.1,256.9,342.4,257.6,342.7C257.3,343.2,256.9,342.4,257.6,342.7z M262.3,341.8
	c-0.4,1.2-1.3,1.4-2.2,1.3C260.8,342.6,261.3,341.5,262.3,341.8z M284.4,351.3c0.9-1.3,2.1-1.4,3.4-0.4
	C286.2,354.6,288.8,350.2,284.4,351.3C285.3,349.4,285.8,350.9,284.4,351.3z M258.7,339.3c1.2-0.8,2.5-1.1,3.9-0.9
	c-0.8,0.5-3.5,1.5-2.8,1c-0.1,0.7,0.7,1-0.1,1.9C258.8,340.9,258.9,340,258.7,339.3C260.1,339.1,258.9,340,258.7,339.3z
	 M265.6,340.5C266.4,343.7,259.9,341.6,265.6,340.5C265.7,341,264.4,340.7,265.6,340.5z M293.2,347c-1.1,0.7-3.3,4.6-4,2.3
	C290.5,348.5,291.8,347.7,293.2,347C292,347.7,292.2,346.8,293.2,347z M302.7,345.8c-0.4,0.9-0.9,1.6-1.7,1.8
	C300.6,346.9,301.5,345.5,302.7,345.8z M301.4,343.2c-1.5,2-3.4,2.8-5.8,2.2C297.9,345.7,299.8,342.5,301.4,343.2
	C300.5,343.5,299.8,342.5,301.4,343.2z M313.5,342.4c-0.1,1.2-0.9,1.6-1.6,1.9C311.3,343.6,312.4,342.5,313.5,342.4z M309.5,340.6
	c2.6,0.7,2.9-1.7,4.8-2.1c0.3,1.9-3.2,2.9-4.8,4C309.8,341.6,308.9,341.6,309.5,340.6C312.1,341.3,308.9,341.6,309.5,340.6z
	 M309.4,339.4c2.2,0.1,0.4-2.6,2.5-2.9C311.9,336.4,309.6,342.6,309.4,339.4C311.6,339.5,309.5,341.1,309.4,339.4z M317.5,333.5
	c0,1.4-0.7,2-1.6,2.3C315.3,335.1,315.9,333.1,317.5,333.5z M291.2,329.4c0,1.6-1.1,1.4-1.9,1.9
	C289.9,330.6,290.2,329.4,291.2,329.4z M290.2,328.9c0,1-1.7,1.8-2,0.7C289.2,329.7,288.9,328.1,290.2,328.9z M295,329
	c1.8,0.6,1.7,1.4-0.1,2.2C295.4,330.4,293.7,329.5,295,329C295,329.7,293.7,329.5,295,329z M291.7,324.8c-0.1,2.3,0.7,3,2.6,1.9
	c-0.6,1.4-0.9,3.3-2.5,3.2C292.8,327.8,289.1,325.1,291.7,324.8C291.9,325.2,289.1,325.1,291.7,324.8z M328.5,329.2
	c0.4,1.2-1.3,2.4-1.7,1.3C327.5,330.3,327.2,328.9,328.5,329.2z M297.1,325.6c0,1-0.4,1.5-1.3,1.3
	C295.8,325.9,296.1,325.4,297.1,325.6z M322.1,327.6c0.9-1.4,5.5-5.8,6.5-5.9C329.5,327.7,324.3,325.9,322.1,327.6
	C322.9,326.5,323.9,326.2,322.1,327.6z M330.5,321.1c2.2-0.2,0.6,3.3-0.9,3.3C329.4,322.6,331,322.9,330.5,321.1
	C332.8,320.9,331.2,323.5,330.5,321.1z M331.4,317.5c2-0.5,2,3.7,0.3,3.5C331.8,319.8,331.7,318.6,331.4,317.5
	C333.1,317,332.3,319.3,331.4,317.5z M340.6,315.6c-0.2,1-0.3,2.1-1.5,2.3C339,316.6,339.5,315.9,340.6,315.6z M433.7,243
	c-0.4-1.1-0.6-4.4,0.7-3.8C433.6,240.2,436.3,243.2,433.7,243C433.3,241.9,434.1,243,433.7,243z M346.8,299.9
	c2.2-0.6,1.3,4.3-0.4,2.9C347.6,302.2,346.1,301.3,346.8,299.9z M433.9,236.1c-0.3-2.4-1-7,1-7.7c-0.3,1.6,0.3,2.5,1.9,2.8
	C436.5,231.6,432.3,235.9,433.9,236.1C433.5,233.7,435.3,236.2,433.9,236.1z M434.2,222.7c-0.2,1.1,0.5,2.3-0.1,3.4
	C432.6,226.3,433,221.1,434.2,222.7z M329,289.4c0.1,1.1-0.5,1.8-1.5,2.1C327,290.1,328,289.8,329,289.4z M330.1,284.6
	c-0.5-0.6,0.2-2.1-1.1-4.1c1.6-0.5,1.2,2.4,2.8,1.9c-1-1.8,0.9-2.7,1.3-1.9c-0.7,0.4-2.4,9-5.1,7.7
	C327.4,287,328.6,284.5,330.1,284.6C328.7,283,328.6,284.5,330.1,284.6z M328.7,282c0.1,1.5-0.6,2.5-1.3,3.6
	C327.4,284.2,327.3,282.7,328.7,282z M428.9,194.6c0.5-1.9-2.4-5.7-0.6-6.3C428.4,190.2,430.8,193.8,428.9,194.6z M329.9,277.6
	c1.9-0.6,2.2,0.2,1.1,2.3C329.3,279.9,329.9,278.6,329.9,277.6C330.4,277.5,329.9,278.6,329.9,277.6z M334.5,274.7
	c1.1-0.1,0-1.3,1.5-1.3C336.2,274.3,335.2,275.8,334.5,274.7z M328.6,274c0.7-0.3,1.3-0.3,1.6,0.2c-0.7,0.2-1.1,0.7-1,1.4
	C329.1,275.1,328.8,274.5,328.6,274C329.4,273.6,328.8,274.5,328.6,274z M424.9,173.7c1.9,0.7,2.3,2,1.3,4.1
	C425.2,176.5,424.3,175.2,424.9,173.7C425.4,174,424.3,175.2,424.9,173.7z M337.8,266.1c1.6-0.6,1.6-1.1,0.1-1.6
	c3.4-0.6,3.5,0.7,0.4,3.7C338.1,267.1,337.6,266.6,337.8,266.1C338.2,266.5,337.6,266.6,337.8,266.1z M425.1,165.8l-0.6,1.9
	C423,166.7,423.8,164.1,425.1,165.8z M341,260.3c-0.1-0.8-0.1-1.6,1-2.1C342.4,260.1,342,260.8,341,260.3
	C340.9,259.5,341.3,260.1,341,260.3z M415.7,148.9c-1.2-2.3-1-3.3,0.7-3.1C417.1,145.7,419.6,153.6,415.7,148.9
	C415.7,147.9,417.2,150.7,415.7,148.9z M340.8,252.3c0.7-0.9,0.4-3.5,1.6-3.5c-0.5,0.6-0.1,1.5-0.3,2.3c1.1-1.7,1.8-1.3,2.4,1.1
	C343.3,252.3,342,252.3,340.8,252.3C341.6,251.4,342,252.5,340.8,252.3z M412.8,141c0.8,0.4,1.2-0.2,2.2,0.6
	C414.6,142.8,412.8,143.1,412.8,141z M343.3,247.5c1.4-1,2.4-0.6,3.4,0C346.1,247.8,344.1,249.4,343.3,247.5
	C344.7,246.5,343.9,248.9,343.3,247.5z M412.5,137.1c1.1,0.7,1.7,1.5,1.4,2.7C412.8,139,412.2,138.2,412.5,137.1z M343.2,244.1
	c0,1.4,0.2,2.8-0.9,3.9C342.4,247.5,342.2,244.5,343.2,244.1C343.3,245.5,342.7,244.4,343.2,244.1z M344.6,242.3
	c2.4-0.5,2.6,1,0.7,4.3C343.1,245.8,342.8,244.3,344.6,242.3C345,242.7,343.9,243.2,344.6,242.3z M406.5,128.1
	c2.9,0.1,4.3,1.6,4.4,4.6c-0.9-0.3-1.5-0.1-1.9,0.7C408.5,131.5,407.7,129.7,406.5,128.1C407.9,129.1,407,130,406.5,128.1z
	 M342.2,240.1c0.5-0.4,0.9-0.1,1.4-0.5c-0.2-0.3-0.5-0.2-0.7-0.4c0.9-1.2,1.9,2,2,2.1C343.4,242.3,343.7,240.8,342.2,240.1
	C342.7,239.7,343.4,240.7,342.2,240.1z M346.3,237.1c-0.5-0.9,0.3-1.7,0.4-2.6C347.8,235.6,347.8,237.3,346.3,237.1z M344.9,231.3
	c-0.1-0.8-0.7-1.6-0.1-2.3c0,0,1.4,2.2,1.1,1.9C345.6,231.2,345.3,231.3,344.9,231.3C344.8,230.5,345.3,231.3,344.9,231.3z
	 M347.2,225.6c-0.5,0.8,0.3,1.7-0.7,2.5C345.8,227,346,226.1,347.2,225.6C346.6,226.4,346.5,225.5,347.2,225.6z M347.7,226.1
	C349.4,223.3,348.9,227,347.7,226.1C347.8,225.9,348,226.4,347.7,226.1z M348.1,220.2c1.2,1.4,1,2.8,0.4,4.2
	C347.4,222.9,348.6,221.6,348.1,220.2z M345.3,219.4c1.8,0.5,1.5,2.1,1.2,3.4C345.4,221.6,344.6,220.5,345.3,219.4z M348.5,212.8
	c1.7-1.7,2.2-0.8,1.6,2.6C349.9,214.1,349.2,212.8,348.5,212.8C348.9,212.6,349.2,212.8,348.5,212.8z M343.1,198.1
	c0.8,0.5,0-0.8,0.8-1.2c0.9,0.3,0.4,2.1-0.4,1.9C343.8,198.2,342.9,198.7,343.1,198.1C343.9,198.6,342.9,198.7,343.1,198.1z
	 M284.1,112.4c-2.1-2.5-1.3-3,2.4-1.5C286.7,112.7,285.7,111.4,284.1,112.4C283.7,111.7,285.4,111.6,284.1,112.4z M277.5,106.5
	c0.3,1.7,2.8,0.7,1.3,2.4C278.6,108,276.6,107.6,277.5,106.5z M164.4,13.8c3.1-2.1-4,0.1-0.3-3.1c0.8,0.8,1.8,1.1,3,0.9
	C166.9,13.1,166,13.8,164.4,13.8C168,11.4,166.4,14.3,164.4,13.8z M168.2,10.2c4.1,1.4-0.2-2.1,3.2-2c1.2,1.8-1.5,4.4-3.3,4.8
	C167.5,12.2,166.5,11.3,168.2,10.2C168.8,10.4,166.5,11.3,168.2,10.2z M253,97.2c-1,0.4-1.6-0.2-2.3-0.6
	C252.8,94.9,253.6,95.1,253,97.2C252,97.6,252.7,96.6,253,97.2z M158.4,15.1c-2.9-1.5,0.4-4.2,2.1-3
	C159.6,13.6,159.3,13.5,158.4,15.1C157.1,14.5,159.3,13.5,158.4,15.1z M248.1,94.6c1.1,0.9,1.3-0.8,2.2,0.2
	C250.3,95.4,247.2,96.1,248.1,94.6z M157.2,15c-0.7,0.7-1.5,0.9-2.4,0.4C155.6,13.9,156.4,13.7,157.2,15
	C156.4,15.8,156.5,14.8,157.2,15z M171.1,97c1.1,0.6,1.7-1.2,2.8-0.8C173.3,97.7,171.3,98.3,171.1,97z M167.2,98.4
	c1.3-0.2,2.4-1.1,3.8-0.5C170,99.1,168.7,99.4,167.2,98.4z M165.7,100C167,97.7,168.1,99.9,165.7,100C166,99.6,166.3,100,165.7,100z
	 M65.8,115.4c-4.4,0.8,3-10.6,3-8C67.8,110,66.8,112.7,65.8,115.4C64.5,115.6,66.9,112.8,65.8,115.4z M60.1,122.4
	c-3.6-0.5-2.9-2.6,2-6.4C61.5,118.2,60.6,120.2,60.1,122.4C59.4,122.5,60.6,120.2,60.1,122.4z M125.8,123.1c-0.4-1,0.6-2.9,1.7-2.9
	C127.4,121.9,126.4,122.2,125.8,123.1z M56,132c0.8-4,0.3-6.3,2.4-8.3C58.5,126.7,57.7,129.4,56,132C56.6,128.8,59,129.5,56,132z
	 M117.1,139.6c0,4.4-5.9-3.7-1.6-2.6C114.5,138.6,115,139.5,117.1,139.6C117.1,140.2,115.1,139.6,117.1,139.6z M42.6,152.6
	c-0.7,0.4-4.5-2.1,0-2.7C42.8,150.9,42.2,151.4,42.6,152.6C41.6,153.2,42.2,151.4,42.6,152.6z M66.8,152.1c-0.1,0.1,1.3,4.1-0.1,2.7
	c-0.5-0.7-0.9-0.6-1.3,0.2C65.6,154.2,64.6,150.4,66.8,152.1C66.1,152.6,66.2,151.7,66.8,152.1z M93,156.8c0.9,0,0.1-1.4,1.2-1.2
	C94.9,156.6,93.5,157.7,93,156.8z M89,162.4c0-1.5,0.1-2.9,1.4-3.5C89.9,160,90.4,161.9,89,162.4z M86,166.3c-0.1-0.8-0.2-1.7,1-1.7
	C87.2,165.5,86.9,166,86,166.3z M90.6,168.5c-1,0.1-1.2,0.3-0.5,0.8c-1.3,0.5-1.1-1.9-0.1-1.7C90.1,168,90.4,168.3,90.6,168.5
	C89.6,168.6,90.4,168.3,90.6,168.5z M66.5,206.2c-0.9-0.2-1.3-1.6-1.1-2.3C66.1,204,67.4,205.6,66.5,206.2z"/>
<path id="XMLID_76_" class="st0" d="M352.1,97.7c-4.5-4.6-9.1-9.1-13.9-13.5c1.3,1,2.5,2,3.8,3c-0.4-0.3-12.7-11.6-10.2-9.8
	c-2.2-2.6-5.6-3.9-8.2-6.1c1.8,1.3,3.6,2.6,5.5,3.9c-4.8-6.6-13.4-8.9-19.5-14c2.2,1.4,4.5,2.7,6.7,4.1c-2.1-1.6-4.5-3-6.6-4.6
	c-0.9-0.4,1,0.7,1.1,1c-1.5-1-3-1.9-4.5-2.9c5.4,2.5-1.1-0.3-2.9-1.4c0.9,0.7,1.9,1.3,2.9,1.8c-1-0.5-7-3.8-1.3-2.1
	c-1-0.9-2.5-1.4-3.6-2.3c-0.7-0.3,1.4,0.9,1.8,1.4c-5.5-3.3-11.5-5.8-17-9.2c1.8,0.8,3.5,1.7,5.3,2.5c-7.1-5.9-16.7-7.2-25-10.6
	c0.8,1.6,9.1,3.1,10.9,3.7c-17.6-11.8-44.1-10.2-58.3-15.5c-15-2.9-30.2,0.6-45.2,0.3c1.2-0.2,2.3-0.3,3.5-0.5
	c-27.3-7.7-75.9,22.5-96,37.5c-29.6,22.2-52.2,52.9-65.2,87.5C-10.4,222.5,4.6,304.3,51,363.1c-5.1-8.1-14.9-22.1-18.2-26.3
	C25.2,321,11.9,298.9,10,283.4c-9.4-36.3-9.9-75.2-0.9-111.7c4.3-17.5,10.8-34.5,19.8-50.2c4.1-7.2,8.8-14.1,14-20.6
	c0.5-0.7,17.1-15.1,9.2-10.3C61.7,76.9,81.2,59,96.2,53.8c11.7-7.5,37.9-19.7,44.1-20c2.1,0,16.6-4.5,15.2-3.9
	c13-2.1-16.1,0.5,9-2.2c-1.9,0.2-3.7,0.7-5.5,1.4c2.3-0.3,4.6-0.7,6.9-1.2c0.7-0.2-1,0-0.7-0.1c0.4-0.1,0.8-0.1,1.1-0.2
	c0.6-0.2,0.3-0.2-0.7-0.1c2.3-0.6,14.9-2.8,11-1.6c18.3,0.1,47.3-1,59.8,2.3c6.9,1.8,8.7,2.3,5.5,1.2C243,30,258,34,256.6,33.4
	c1.1,0.2,2.1,0.5,3.1,0.8c0.5,0.2,0.1,0.2-0.9,0c6.4,1.8,12.6,4.2,18.6,7.1c9.2,4.2,11.4,5,6.6,2.6c-0.7-0.3,15.8,8.9,11.4,5.4
	c0.4,0.2,11,5.9,7.7,4.5c3.9,2.5,7.8,4.9,11.8,7.1c1,0.7-18.1-11.5-11.4-7.9c0.5,0.4-9.6-6.6-6.2-3.5c-1.7-1.2-9.8-5.4-10.8-5.6
	c-3.2-1.4-6.3-2.7-9.4-4.1c-0.7-0.4,1.1,0.5,1.6,0.5c-1-0.5-2.2-0.9-3.2-1.5c3.9,1.6,7.8,3.3,11.6,5c-4.2-2.1-8.6-4-12.9-5.7
	c-1-0.2,1.1,0.5,1.3,0.7c-2.5-0.8-2.1-1.3-4.7-1.9l2.2,0.9c-1.2-0.2-1.9-0.8-3.1-0.9c-0.9-0.4-0.1-0.2,0.5,0
	c-0.6-0.2-17.3-3.7-9.6-3.4c-0.9-0.3-16.6-4.6-14.3-4.3c-0.4-0.2-6.5-1.1-4.7-0.9c-4.3-0.9-26.7-3.9-20.6-3.4
	c-7.2-1.5-5.7,0.9-4.9-0.9c-32.8-2.9-69.5,3.8-97,15.5c-52.9,20.1-90.9,64.5-107,118.3c-12.7,42.5-18,118.4,5.4,154.3
	c18.1,47.3,55.7,86.2,100.1,109.8c23.9,12.7,50,21.1,77.1,23.3c29.7,2.4,57.7-6.2,85.5-8.3c1.2-0.4,2.3-0.8,3.5-1.2
	c-0.5,0.1-0.9,0.2-1.3,0.4c2.9-0.6,10.8-4.6,5-1.6c-2.7,1.1,20.2-9.1,14.3-6.5c-1.2,0.7,16.6-8.4,9.9-5.3c2.4-1.6,4.9-2.7,7.2-4.4
	c0.3-0.2-0.3,0.3-0.7,0.6c10.2-4.8,19.3-12.4,27.2-20.4c-1.1,1.2-2.3,2.3-3.6,3.3c0.5-0.3,1-0.8,1.6-1.1c-3.6,3.1-7.2,6.1-10.9,9
	c1.4-0.9,13.1-10.7,11.9-9.3c17.1-15.7,32.3-34.2,44.1-54.2c10.2-17.4,14.6-45.6,18-56c2.9-20.1,4.7-40.5,3.2-60.9
	c-1.2-15.7-10.9-39.9-12.2-47.8c-0.5-1-0.7-1.9-1.1-2.9c1.8,6.2,3.5,12.4,5.1,18.7c-0.6-2-1.3-4-2-6c2.6,9.4,8.6,24.9,6.7,33.9
	c-0.1-1.1,2.1,17.4,0.9,10c0.1,1.1,0,2.7-0.1,2.6c-0.3-1.9-0.1-2.2-0.4-3.5c0.2,1.9,0.3,3.9,0.5,5.8c-1.7-0.5-1.5-12.8-1.7-14.7
	c0.3,1.2,0.6,2.4,0.8,3.6c-0.5-4.9-1.3-9.7-2.3-14.5c0.4,2.3,0.8,4.6,1.2,6.9c-5.9-13.7-5.4-29.2-10.9-43c0.2,1,4.5,18.1,3.9,16.1
	c0.6,4.7,1.9,9.3,2.9,13.9c-0.6-1.3-1.1-2.7-1.3-4.2c0.1,0.6,0.2,1.2,0.2,1.8c0.1,0.4,0.1-0.1,0.1-0.3c1,4,4.1,10.9,2.3,15.2
	c-0.8-5.3-6.8-27.7-5-23.4c-1.1-7.6-4.3-15-7-22.2c0.2,1.2,0.6,2.4,1.1,3.5c-3.2-7.4-14.4-25.9-13.6-30c-3-5.2-6.4-10-7.1-10.2
	c1.5,3.4,7.3,15,6.5,13.7c2.5,3.3,2.9,4.4,1.4,3.3c3.5,7.8,8.9,15.5,10.4,24.1c-1.1-2.4-2.3-4.9-3.4-7.3c2.2,5.9,4.2,11.8,6.1,17.8
	c-0.6-2.2-1.4-4.3-2.4-6.4c-0.2-0.9,3.5,15.4,3.6,11.3c0-0.2,4.6,15,1.8,7.5c0.8,3.4,1.6,6.8,2.3,10.2c-0.5-1.5-1-3-1.5-4.5
	c0.5,3.5,1,7,1.7,10.5c1.4-11.9,1.9,19.2,0.3,12.7c-0.1,3.6,1.2,17,0.7,19.1c0.2,4.3,0,8.6-0.6,12.8c0.2-10.3-0.1-10.6-0.7-0.8
	c0.2-1.4,0.2-2.8,0-4.2c-0.9,3.8-1.6,15.2-0.6,13c-0.5,7.3-3,23-4.8,26c-0.9,3.2-1.4,6.7-1.6,8.3c2.4-6.9,2.5-14.4,4.9-21.3
	c0.1,4.9-3.4,25.3-5.3,21c-0.2,1.1-5.2,15.3-5.1,15.1c-0.3,0.9-0.7,1.8-1,2.8c-0.9,1.4,0-0.5,0.4-1.5c-1.8,1.8-7.6,17.4-5.9,11.6
	c-5.7,10.2-6.1,11.2-1,3c-5.6,7.2-9.1,16.8-14.7,24.5c0.7-0.2,1.7-3.2,1.9-3.4c-2,3.1-4.2,6.1-6.6,8.9c0.6-1.1,1.3-2.2,2.1-3.3
	c1.1-1.3-17.2,18.7-13.2,15.3c-0.3,0.7-1.6,2-2.7,3.2c0.9-0.8,1.8-1.6,2.7-2.4c-7.1,7.9-19.6,16-25.4,20.9c-3.4,2.4-10.7,7.8-14,9.2
	c6-4.1-11.4,6.8-5.8,3.2c0.7-0.3-17,6.5-10,4.8c-0.9,0.7-5.9,2.7-8.9,3.9c0.5-0.4,0.1-0.4,1.7-1c-5.4,1.7-10.8,3.6-16.1,5.7
	c5.8-2.8,3.7-2.3-6.4,1.5c14.2,1.2-18.8,4.7-11.2,2.3c-0.2,0.4-3.4,0.6-4.8,0.8c-0.3-0.1,0.7-0.4,1.2-0.5c0.3,0.1-10.3,0.1-3,0.6
	c-1.2,0.2-2.5,0.6-3.6,0.5c-0.4,0,0.6-0.1,1.1-0.3c-10.9,0.1-21.3,1.4-32.2,0.9c1.6,0.1-28.4-1.2-16.3-1.2c1.2,0.3-24.9-6.3-20-3.7
	c-1.3-0.2-7.5-2.8-5.6-2.1c-0.1-0.2-3.4-1.1-4.8-1.6c3.6,1.2,2.8,1.4,6.4,2.4c-3.5-0.5-3.7-1.4-6.2-2c0,0.2,2.5,1.2,2.1,1.2
	c-3.4-1.7-14.9-7.9-11.1-4.4c-10.4-3.3-31.4-10.6-35.4-16.1c-2.2-1.4-4.3-2.8-6.5-4.2c1.3,0.9,2.6,1.8,3.9,2.7
	c-2.9-0.7-5.2-2.3-7-4.7c1,0.7,2.1,1.4,3.2,1.9c-5.1-5.4-7.2-6.8-6.3-4c-6.3-3.8-17.4-12.6-19.4-16.2c-1.5-1.4-3.3-2.7-4.5-4.3
	c-0.3-0.2-0.3-0.1,0.1,0.3c-0.7-0.4-1.1-1-1.7-1.5c-0.6-0.7,0-0.2,0.5,0.2c-0.7-0.8-1.6-1.5-2.3-2.3c-0.3-0.2,0.1,0.3,0.4,0.6
	c-1.9-1.2-10.6-11.6-10.2-11.1c-0.6-0.7-1.5-1.4-2-2.2c-0.5-0.8,0-0.2,0.5,0.2c-2.3-2.8-4.6-5.6-7-8.3c1.7,2.3,3.4,4.5,5.1,6.7
	c0.3,0.3-0.2-0.3-0.4-0.6c1,1.3,2,2.7,3.1,4c-4.4-5.4-8.8-10.8-12.8-16.6c-6.4-9.4,0.1-0.5,0.4-0.6c-2.7-3.7-7.6-12.5-9.5-15.3
	c-4.2-8.6-7.9-17.4-12.1-26c-0.3-0.7-7.3-12.6-3.4-6.3c0.2,0.6-0.8-1.6-0.9-2.1c-0.4-0.6,0.4,1.6,0.6,2.1c-1.1-3.7-2.3-7.3-3.6-10.8
	c1,1.9,1.9,3.9,2.7,6c-1.3-5.9-3.1-11.7-5.2-17.3c0.3,1.2,0.5,2.4,0.8,3.5c-0.1,0-1.8-5.6-1.8-6.1c3.6,5.7-1.9-7.1-1.9-11.1
	c0.9,4.2,4.9,10.8,3.7,15.2c-0.9-3.1-1.6-6.2-2.3-9.4c0.4,10.4-1.5-12.7-1.1-7.5c-0.6-2-0.4-6.1-1.3-8.2c1.4,1.5,1.7,3.5,0.9,6
	c-1-3.3-0.5-18-1.3-13.4c-0.1,0.6-0.4-1.5-0.8-3.5c0.1-1.6,0.4,1.6,0.6,1.6c-0.3-1.9-0.5-3.8-0.8-5.6c-0.3,12.2,1.2,13.3,0.6,8.1
	c-0.2-0.7,0,1.9,0.1,1.5c1.6-0.7-3.2-21.7-1.4-13.1c0.1-2.5,0-5-0.4-7.5c-1,8.3,0.6,3.5,0.8,1.4c0,2.6-0.1,4.1,0.4,7.4
	c0.2-3.4,0.2-6.9-0.2-10.3c-4.3,8.6,0.2-1.5-0.2-0.8c-0.4-2.9,1.5-15.2,0.3-14.1c0.1-1.8,0.3-3.4,0.4-5.2c-0.2,0.5,0,4.1,0.3,2.9
	c0.6-7.2,0.6-8.5,0-3.9c0.7,0.6-2.8-13.8,1.3-7.5c1.3-8.5,1.8-10.6,1.3-6.4c0.2-0.1,2.3-8.9,1-6.3c0.1-0.7,7.7-23.4,5.1-17.5
	c0-0.6,1.3-4,1.9-5.6c0.4-0.4-0.8,2.2-0.4,1.9c3-6.6,10.3-24.7,11.8-25.7c0.4-1,0.9-1.7,1.4-2.6c0.3-0.8-0.8,1.1-0.9,1.5
	c-1.3-9,2-1,1-2c3.1-6.7,4.1-8.4,3.1-4.9c6.5-8.4,8.1-10.5,4.6-6.4c0.7-1.2,1.4-2.4,2.1-3.6c-0.9,1.2-1.7,2.4-2.4,3.6
	c0.2-0.1,5.7-9.1,2.8-4.9c-0.1,0.2,6.9-9.9,5.3-6.8c3.8-5.1,7.9-10,12.3-14.5c-1.3,1.7-5.5,5-0.4,0.8c0.6-0.5-0.8,0.8-0.9,1.2
	c1.8-1.3,7.7-5.6,8-8.1c0,0.2-4.3,3.7-1.9,1.7c-0.5,0.2-3.1,3-4.5,4.2c4.2-4.4,13.4-11.9,15.6-14.2c25.3-23.1,2.8-1.8,4.4-3
	c7.5-9,22.8-14.2,28.7-17.7c5.7-3.5,7.2-4.3,4.6-2.2c5.5-2.7,11.1-5.2,16.8-7.4c-4.1,0.5,18.7-4.2,19.4-4.4c0,0,24.8-3.7,17.9-3.5
	c1.1-0.3,2.1-0.1,3.3-0.3c0.4,0-0.4,0.1-0.8,0.2l6.8-0.4c0.3,0-0.4,0.1-0.8,0.2c5.1-0.2,10.2-0.4,15.2-0.5c-4.2-0.1-8.4-0.1-12.6,0
	c1.4-0.1,2.9-0.1,4.3-0.2c0.6-0.2-1.9,0-2.5,0c3.3-0.2,6.6-0.4,9.9-0.5c-1.1,0.1-2.3,0.2-3.4,0.3c6-0.6,7.7-0.5,5,0.2
	c0.4,0,16.5,2.6,10.4,0.6c-0.1,0,15.7-0.5,9.2,1.2c30.9,4.8,7.7,1.1,7.1,0.6c2.5,0.5,5,1,7.4,1.4c0,0-6.3-1-6.9-1.1
	c-2-0.3,21.7,2.7,14,3.2c4.7,1.3,9.4,2.6,14.1,3.8c-1.4-0.4-9.4-3.2-6-1.7c-7.2-6.1-26.9-6.2-29.7-7c-0.7-0.1-1.5-0.1-2.2-0.2
	c-0.2-0.1-0.2-0.2,0.5-0.2c-9.8-2.6-24.4-3.5-34.3-1.3c1.2,0,2.4,0,3.5,0.1c-6,0.3-6.7,0.3-2.1,0c-3.1,0-6.1,0-9.2,0
	c2.2,1.1,3.4,0.9,3.7-0.4c-1.5,0.1-6.3,0.4-2.6,0.5c0.9-0.1-10.2,2-6.9,0.9c-4,0.1-19,6.5-15.6,2.2c-5.3,1.3-10.5,2.9-15.5,4.8
	c4.8-1.7,4.7-1.8-0.3-0.3c0.8-0.4,1.6-0.5,2.4-0.8c-6.4,5.2-17.6,4.5-24.8,9.5c18.1-5.6-15.3,5.4-3,1.3c-0.4,2.9-9.9,5.3-12.1,7.2
	c0.9-0.4,2.8-3.2,3.5-3.9c-2,2.4-9.3,5.8-4.8,4.3c-1.5,0.9-1.8,1.2-2.8,2c-1.5,0.7,1-0.8,0.6-0.7c-3.6,1.7-8.6,5.3-11.5,8
	c-1.2,0.5,15.5-11.2,5.6-4.4c-1.3,0.9-2.6,1.8-4,2.6c-0.4,0.2,19.8-12.5,11.8-8.7c-0.3,0.3,0.3-0.1,0.7-0.2c-1,0.8-2.1,1.3-3.1,2
	c5.9,1,14.5-9,19.6-11.4c-3.7-0.2-9.3,5-12.4,6.8c3.4-2.9,17.4-8.4,16.5-7.8c-0.5,0.2,15.2-4.3,9.2-4.1c3.1-1.5,6.2-3,9.3-4.5
	c-1.6,0.7-5.2,3.4-5.1,3.4c-17,7.3,17.4-6.1,5.9-2.4c1.3-0.5,2.6-1.3,3.9-1.5c0.6,0-1.5,0.5-1.1,0.6c4.2-0.1,8.8-2,7.1-1.8
	c8.3-4.3,2.3-0.3,1.8-0.4c6.8-1.7,13.8-2.9,20.8-3.4c-1.6,0.3-3.2,0.6-4.8,0.9c2.9-0.2,5.6-1,7.6-1c0.4-0.1-0.3-0.1-0.7-0.1
	c4.3-1.5,18.5-1.4,17.7-1.5c0.4,0,16.4-0.9,8.3,0.4c8.7,1.4,11.4,1.5,8,0.5c11.4,0.3,23.3,2.4,34,6.4c-1.2-0.2-2.5-0.4-3.7-0.6
	c5.4,1,10.7,2.2,16,3.7c-2-0.8-3.9-1.6-5.9-2.5c1.4,0.2,15.6,5.6,13.8,5.2c1.3,0.5,12.8,5.1,10,3.3c2.5,1,15.8,8.3,11.6,5.4
	c-0.9-0.4-0.3,0,0.1,0.3c-2.7-1.4-5.3-2.8-8-4.2c2.4,1,4.5,2.3,6.9,3.3c-1.2-0.6-2.3-1.2-3.5-1.9c0.3,0.1,6.4,3.4,5.7,3.1
	c-0.5-0.4,18.6,9,12.3,7.6c4.8,3,9.6,6.1,14.3,9.2c-1.2-0.7-2.4-1.4-3.6-2.2c1.7,5.1,11,9.3,15.3,11.9c-0.6-0.4-9-8.4-2.4-2.6
	c-2.1-1.3-5.4-2.9-2.9-2.3c-5.5-4-6.8-5.3-3.8-3.7c-0.4-0.3-12-8.7-9.6-7.6c-1.1-1-2.6-1.8-3.8-2.8c-0.6-0.2-0.3,0,0.5,0.5
	c-3.9-2.1-4.7-2.7-2.3-1.7c-2.2-1.6-9.3-3.4-10.2-6.3c3.8,2.2,7.5,4.3,11.3,6.4c-5.5-2.5-14.5-8.1-17.9-9.8
	c-1.4-0.6-2.8-1.2-4.1-1.8c1.1,0.4,2.1,0.8,3.2,1.3c-6.5-2.6-8.1-3.5-4.7-2.7c-2.4-1.3-1.6-0.3-4.3-1.6c-0.3-0.1-0.4,0,0.2,0.3
	c-2.5-1.2-5-2.4-7.5-3.6c4.5,1.5,8.8,3.3,13,5.4c-1-0.7-2.1-1.2-3.2-1.7c6.6,2.4,11,7.3,18.6,9.5c-1.6-0.7-3.1-1.4-4.7-2.2
	c10.2,5.8,19.7,12.4,29.5,18.8c-12.7-12.7-9.2-5.4-5.6-4.7c-2.8-2.1-5.7-4.2-8.6-6.3c1.3,0.8,2.6,1.6,3.9,2.4c0.7,0.5-15-9-9.9-6.9
	c-0.7-0.6-1.7-1-2.5-1.6c0.4,0.4,0.3,0.6,1.8,1.6c-1.8-1.2-3.6-2.2-5.6-3.1c1.7,0.7,3.3,1.4,4.9,2.2c-12.4-6.3-29.2-16.5-40.7-18.4
	c0.6,0.2-16.3-5.7-11.7-3.7c-2.9-0.8-1.6-0.5-4.2-1.3c-0.5-0.1,0.9,0.4,0.2,0.3c-7-0.7-9-1.1-5.8-1.3c-4.3-1-3.6-1-9.1-1.8
	c-0.3-0.1-0.2-0.2,0.5-0.1c-6.4-0.5-12.8-1.1-19.2-1.7c-10.6-0.6-13.1-0.9-7.6-0.9c-0.7,0-14.5,1-11.8,0.6c-1.9-0.1-3.5-0.2-5.1,0
	c-1.2,0.4,1.6-0.2,2.6,0c-1.4,0.2-2.8,0.3-4.2,0.4c0-0.1,0.4-0.3,0.9-0.5c-4.9,0.6-21.6,2.6-20.5,2.6c-1.4,0-4.5,0.9-5.6,1.4
	c-1.9,0.4-0.2-0.2,0.8-0.5c-2.6,0.5-5.2,1.6-7.7,2.1c-0.8,0.1,1.2-0.6,1.5-0.5c-0.4-0.1-1.8,0.2-3.6,0.6c8-2.2-5.5,0.8-1.5,0.4
	c0.7-0.3-25.4,9.1-16.8,5.7c-0.3-0.4-18.9,8.2-12.1,5.1c-5.1,2-13.1,6.5-18.9,10.2c-0.1-0.1,0.5-0.6,1.2-1.2
	c-2,1.2-15.8,8.6-13.5,9.2c-11.3,8.1-27,21.4-33,31c-1.2,1.4-2.5,2.9-3.6,4.4c0.8-1.4,1.2-1.5,1.5-2.3c-0.8,0.8-1.5,1.7-2.1,2.7
	c2-4.4,4.1-5.9,1.4-2.5c-0.4,0.2,0.5-0.9,1.3-2c0.5-0.4-0.1,0.4-0.1,0.6c1.4-1.7,2.7-3.4,4.1-5.1c-0.2,0.2-5.8,6.9-2.6,4.1
	c-0.3,0.4-0.6,0.8-1,1.2c1.5-1.4,7.5-6.1,7.1-8.5c-1.2,1.4-2.3,2.7-3.5,4.1c3.8-0.4,10.3-13.9,6.2-7.4c6.3-5.1,8-6.8,5.1-5
	c2.4-2.8,5.2-5,7.8-7.4c-0.9,0.5-1.7,1.5-2.6,2.1c1.6-1.5,4.4-4.2,5.2-4.4c-0.8,0.6-1.5,1.3-2.3,2.2c4.1-7,15.2-10,19.2-14.1
	c2.5-1.4,5-3.1,9.1-4.9c-4.3,2-2.2,1.2-6.1,3.3c0.4-0.4,13.2-8.4,6.8-4c1.1-0.5,2.2-1.2,3.3-1.9c-0.1,0-0.2,0-0.7,0.2
	c10.9-6.7,36-14.5,41-16.3c2.2-0.1,19.9-2.1,4.5-1.5c0.5-0.1,17.9-4.4,8.9-2c-0.4-0.2,3.2-0.9,4.9-1.1c1.1,0-2.6,0.5-1.5,0.5
	c14.3-1.1,47-6.3,54-1.6c-0.3-0.1,4.3,0.8,2.6,0.4c2.6,0.4,11.7,1.1,13,2.1c0,0,15.5,1.9,7.5,1.4c3.7,0.9,7.5,1.8,11.2,2.6
	c-1.9-0.2-3.8-0.6-5.7-1.3c8.3,2.4,16.2,7.3,24.9,8.1c-1.3-0.4-2.5-0.7-3.8-1.1c8.5,3.1,5.4,2,2.8,1.5c1.7,0.5,3.5,1,5.3,1.3
	c-6-2.7-12.1-6.1-18.6-7.3c10.5,4.7,33.2,15.5,38.2,16.7c2.5,1.3,5.1,2.6,7.6,3.9c-1.3-0.8-16.9-6.2-10.6-6.5
	c-14.5-8.2-30.5-13.5-46.1-19.1c-6.6-1.3,10.7,2.7,4.2,0.9c1.9,0.3,3.5,1,5.2,1.5c0.6,0.3-1.8-0.4-2.3-0.6c0.5,0.4,4.4,1.4,6.2,2
	c-0.7-0.4-1.7-0.5-2.5-0.9c3.4,1.1,4.7,1.4,7.8,2.4c1,0.5-2.5-0.7-0.6,0.1c-0.5-0.1,16.9,6.5,13.4,5c7.9,2.4,15.5,7.2,22.4,11.7
	c-1-0.6-2.1-1.1-3.2-1.6c2.1,1.4,5.8,3.5,1.6,1c0.4,3,18.9,11.2,15.3,9.6c3.3,2.3,9.2,6.8,11.9,8.6c7,6,8.4,7.3,4.1,3.8
	c0.4,0.6,3.5,3.3,5,4.6c1.5,1.1-1-0.9-1.2-1.4c3.7,3.2,4.5,3.7,2.6,1.5c1.5,1.5,2.9,3.1,4.4,4.6c-0.9-0.9-1.9-1.8-2.8-2.6
	c5.5,4.6,6.9,6.1,4.3,4.3c0.5,0.8,1.5,1.4,2,2.2c0.5,0.4-0.6-0.8-0.3-0.6c2,1.9,3.6,3.9,5.5,5.9c-0.8-0.8-1.5-1.7-2.1-2.6
	c1.1,1.1,2.2,2.2,3.3,3.3C352.3,99.2,349.9,94.6,352.1,97.7C347.8,93.1,353.2,99.1,352.1,97.7z M226.3,28.2
	c-1.5-0.1-2.8-0.4-4.2-0.6C223.6,27.7,225,27.8,226.3,28.2z M110,45.8c2.6-1.4,5.2-2.7,7.8-4.1C115.2,43.5,110.2,45.8,110,45.8
	C112.3,44.3,111.3,45.5,110,45.8z M402.9,222.5c-0.2-1.3-0.4-1-0.4-2.6C402.6,219.9,403,221.6,402.9,222.5z M398.4,224
	c-0.2-2-3-9.6-1.7-11.4c1.5,2.7,2.1,5.7,1.8,9c0,1.3-0.3-1.4-0.4-0.8C398.7,222.9,398.2,224,398.4,224
	C398.1,221.6,398.5,224,398.4,224z M298.7,413.1c-1.2,0.8-2.4,1.1-3.6,1.8C296.3,414.1,297.5,413.5,298.7,413.1z M186,429.6
	c-0.6-0.2-3-0.7-2.4-0.7C184.5,429.3,187.2,429.5,186,429.6z M105.7,395.9c0.7,0.6,1.7,1.1,2.3,1.7
	C107.2,397.4,105.2,395.8,105.7,395.9z M221.7,42.2c1.6,0.1,3.1,0.4,4.6,0.8C223.7,42.6,221.7,42.2,221.7,42.2
	C223.3,42.3,221.7,42.3,221.7,42.2z M192,38.1c1.8-0.6,3.6-0.6,5.5,0C195.7,38.1,193.8,38.1,192,38.1C192.1,38,193.8,38.2,192,38.1
	C193.2,36.6,193.8,38.2,192,38.1z M312.8,76.1C309.6,73.9,309.6,73.9,312.8,76.1C311.9,75.8,312.2,75.5,312.8,76.1z M151.2,38
	c3.4-0.8,4.8-1.3,7.7-1.8C156.3,36.9,153.7,37.5,151.2,38z M223.9,33.6c1.1,0.2,4.2,0.6,4.1,0.7C226.8,34.2,223.7,33.7,223.9,33.6z
	 M260.2,42.2c0-0.1,1.5,0,2.3,0.6C263,43.1,260.7,42.4,260.2,42.2z M342.3,88.5c1.1,1.1,2.2,2.1,3.3,3.2
	C344.4,90.8,343.3,89.8,342.3,88.5C342.9,89.1,342.2,88.6,342.3,88.5C343.6,89.5,342.2,88.6,342.3,88.5z M300.2,55.4
	c0.9,0.5,1.9,1,2.7,1.6C301.2,56.2,300.4,55.5,300.2,55.4z M252,33.9c0.2-0.1,2.6,0.5,3.7,1.1C254.4,34.7,253.3,34.2,252,33.9z
	 M241.1,31.1c1.4,0.2,4.6,0.9,4.5,1.2C244.1,31.8,242.5,31.7,241.1,31.1z M306.6,68c-2.1-1.3-4.2-2.6-6.3-4
	C316.6,71.6,304.8,66.4,306.6,68C304.5,66.6,306.2,67.6,306.6,68z M208.6,23.9c0.3-0.2,3,0,4.4,0.2
	C211.4,24.3,209.9,24.1,208.6,23.9z M256.8,38.2c1.2,0.4,2.5,0.7,3.7,1.1C259.3,39.1,256.4,38.3,256.8,38.2z M305.9,68.4
	c0.3,0.4,2.5,1.6,1.7,1.3C306.8,69.2,304.8,68,305.9,68.4z M303.6,67.1c0.6,1,1.1,2,1.7,3c0-0.1-3.7-4.6-3.9-4.7
	C305.2,67.6,305.9,68.2,303.6,67.1C303.3,66.6,304.4,67.6,303.6,67.1C308.5,74.8,304.4,67.6,303.6,67.1z M298,63.1
	c1.1,0.6,2.3,1.2,3.2,1.9C300,64.5,299,63.8,298,63.1z M257.5,40.5c-0.8-0.2-1.5-0.4-2.2-0.6c1.7,0.4,0.9-0.3,3.2,0.5
	C259,40.9,256.3,40,257.5,40.5C256.7,40.4,256.3,40,257.5,40.5C256.7,40.4,256.3,40,257.5,40.5z M287.8,57.6
	C290.9,59.2,290.9,59.2,287.8,57.6C288.3,57.8,288.6,58.1,287.8,57.6C288.7,57.9,288.6,58.1,287.8,57.6z M305.1,70.7
	c0.2,0.5,1.3,0.8,2.4,1.7C307.4,72.6,302.8,69.5,305.1,70.7z M249.4,38.3c-3.6-0.9-7.1-1.8-10.7-2.6c3.8,0.8,15.3,3.7,13.5,3
	c1.3,0.3,2.4,0.7,3.6,1.2C253.4,39.5,249.2,38.5,249.4,38.3C245.9,37.1,249.6,38.1,249.4,38.3z M210.7,26.8c0.1-0.2,2.4,0,3.6,0.1
	C214.1,27.1,211.9,27,210.7,26.8z M257,41.1c-0.4-0.2-0.9-0.4-1.3-0.6c0.8,0.1,1.6,0.3,2.2,0.6C256.3,40.7,258.7,41.5,257,41.1
	C256.6,40.9,258.7,41.5,257,41.1C256.6,40.9,258.7,41.5,257,41.1z M294.4,63.7c1.6,0.7,3,1.6,4.2,2.8
	C297.1,65.7,295.7,64.8,294.4,63.7C295.6,64.1,296.3,64.8,294.4,63.7C297.5,64.9,296.3,64.8,294.4,63.7z M276.9,52.2
	c1.1,0.3,2.3,0.7,3.2,1.3C279.1,53,277.8,52.8,276.9,52.2z M289,59.8c1,0.8-2.5-0.8-3.9-1.6C272.2,55,290.7,60.3,289,59.8
	C289.9,60.6,288.2,59.6,289,59.8z M226.8,32.9c0.5-1.9,12.5,3.7,14.2,3c-2.1,0.9-27.3-4.4-8.3-1.8C226.9,32.7,221.7,32.7,226.8,32.9
	C226.9,32.3,225.5,32.9,226.8,32.9z M274.4,51.3c-1.1-0.3,7.9,7.4-2.2-0.7C275.9,51.7,276.7,52,274.4,51.3
	C273.7,51.1,274.8,51.4,274.4,51.3C273.4,51,274.8,51.4,274.4,51.3z M168.8,25.6c-0.6-0.1,2.1-0.6,2.8-0.5
	C170.6,25.3,169.6,25.7,168.8,25.6z M186.6,26.5c1-0.3,5.1-0.1,3.5-0.1C189,26.4,187.7,26.6,186.6,26.5z M277,54.1
	C279.6,55.3,279.6,55.3,277,54.1C277.5,54.2,278.1,54.8,277,54.1C277.8,54.2,278.1,54.8,277,54.1z M264.6,48.2
	c0.7,0.2,0.6,0.1-0.2-0.3c1.6,0.6,3.3,1.2,4.9,1.8C267.7,49.2,266.2,48.7,264.6,48.2C265.3,48.3,266.2,48.7,264.6,48.2
	C265.3,48.3,266.2,48.7,264.6,48.2z M276.2,53.9c-1.3-0.7-2.6-1.3-4-1.8c1.6,0.6,3.1,1.3,4.6,2.1L276.2,53.9z M258.7,45.5
	c0.4,0.4,2.3,0.7,3.8,1.4C261.4,46.8,257.5,45.4,258.7,45.5z M256,44.5C246.4,41.2,261.7,44.3,256,44.5
	C254.7,44.1,256.4,44.5,256,44.5C254.8,44.1,256.4,44.5,256,44.5z M246.7,40.7c1.7,0.3,3.3,0.7,4.7,1.3
	C249.7,41.7,248.2,41.3,246.7,40.7z M271.1,51.8c-1.8-0.7-3.3-1.5-5.1-2C273.7,50.5,269.9,51.1,271.1,51.8
	C269.3,51.1,270.6,51.5,271.1,51.8z M217,32.2c1.9,0,3.8,0.2,5.7,0.6C220.8,32.7,218.9,32.4,217,32.2z M263.7,48.6
	c1,0.5,2.1,0.8,3,1.2C265.8,49.7,263.3,48.7,263.7,48.6z M167.2,28.4c2.1-0.4,4.1-0.5,6.2-0.9C172.7,27.9,169.2,28.2,167.2,28.4z
	 M270.4,52.4c-4.2-0.5-5.3-1-3.4-1.4c-3.4-0.9-6.8-2.1-10-3.6c6.1,3.7,8.3,4.4,6.8,2.1C264.8,49.8,278,55.8,270.4,52.4
	C270.6,52.6,271.9,53.1,270.4,52.4C269,52.3,271.9,53.1,270.4,52.4z M253.4,44.4c0.7,0,1.4,0.1,3.3,0.8
	C254.4,44.4,255.8,45.1,253.4,44.4z M266,50.2c-0.8-0.3-1.6-0.6-2.3-1C264.8,49.4,267.2,50.4,266,50.2z M211.7,31.8
	c-13.1-0.4-13.2-0.6-0.1-0.5c-1.2,0-2.4,0-3.5,0C209.3,31.5,210.5,31.6,211.7,31.8C208.5,31.4,211.6,31.6,211.7,31.8z M210.7,31.5
	c1.3,0,2.6,0.1,3.8,0.3C213.1,31.8,211.9,31.6,210.7,31.5z M257.2,46.8c-1.5-0.6,1,0.1-0.5-0.4c1,0.2,2,0.5,2.8,0.9
	C259.5,47.3,258.1,47,257.2,46.8C255.7,46.2,258.1,47,257.2,46.8C255.7,46.2,258.1,47,257.2,46.8z M151,30.6c1-0.4,2.1-0.7,3.1-0.9
	C153,30.2,152,30.4,151,30.6z M259.1,47.7c-0.7-0.3-0.3-0.2-0.9-0.5c0.9,0.2,1.7,0.4,2.4,0.8C260.1,47.9,259.6,47.8,259.1,47.7
	C258.4,47.4,259.6,47.8,259.1,47.7C258.4,47.4,259.6,47.8,259.1,47.7z M229.1,37.1c-0.6-0.2-1-0.3-1-0.4c1.6,0.2,3.3,0.4,4.8,0.8
	C231.5,37.5,230.4,37.1,229.1,37.1C228.5,36.9,230.4,37.1,229.1,37.1C228.5,36.9,230.4,37.1,229.1,37.1z M253.4,45.5
	c-1.8-0.8-3.8-1-5.6-1.7C257.6,42.9,251.2,45.2,253.4,45.5C251.6,44.8,253.7,45.6,253.4,45.5z M245.4,42.4c-0.9,0.1-1.7-0.2-2.4-0.8
	C243.7,42,244.7,42,245.4,42.4z M254.8,46.5c-0.5,0,2.2,0.9,0.5,0.5c-1.8-0.5,0.1-0.2-1.5-0.8C258,47.5,258.4,47.6,254.8,46.5
	C254.3,46.4,255.6,46.7,254.8,46.5C254.3,46.4,255.6,46.7,254.8,46.5z M197.8,31.1c1.6,0.1,1.5-0.2,3.5,0
	C200.2,31.3,197.3,31.3,197.8,31.1z M235.8,40.1c1.3,0.3,2.7,0.5,4,0.8C238.3,40.8,237.1,40.4,235.8,40.1z M134.7,35.2
	c0.9-0.4,1.7-0.8,2.6-0.9C137.3,34.4,135.7,35,134.7,35.2z M225.3,37.4c1.3,0.3,2.7,0.4,4,0.8C228,38.1,225.1,37.5,225.3,37.4z
	 M189.4,31.3c-1.8,0.1-3.5,0.1-5.3,0.2C185.7,31.2,190.3,31,189.4,31.3z M240.3,43.7c1.5,0.2-0.1-0.1-0.6-0.3c0.9,0,1.6,0.4,2.5,0.5
	c-1-0.5-2.3-0.6-3.4-1c2.7,1.3,7.2,2.2,10.2,2.6c-3.2-0.8-3.9-0.8-2,0c-4.7-1-5.7-1.3-3.2-0.9C242.6,44.3,241.5,43.9,240.3,43.7
	C241.8,43.8,241.5,43.9,240.3,43.7C241.8,43.8,241.5,43.9,240.3,43.7z M230.4,40.2c-2.9-0.1-5.8-0.6-8.6-1.5c3.4,0.1,6.8,0.4,10.2,1
	C228.6,39.2,228.1,39.4,230.4,40.2C230.3,40.4,227,39.5,230.4,40.2C230.2,40.6,227,39.5,230.4,40.2z M122.2,40.3
	c-0.3,0,1.9-1,0.4-0.5c-1.2,0.6-2.4,1.2-3.6,1.8c2.9-2,6.1-3.4,9.5-4.2C126.3,38.4,124.2,39.3,122.2,40.3
	C121.9,40.3,124.7,39.3,122.2,40.3C121.9,40.3,124.7,39.3,122.2,40.3z M180.2,32c0.7-0.2,1.9-0.4,3.5-0.4
	C182.5,31.7,181.4,31.9,180.2,32z M248.1,46.1c0.7,0.1-0.8-0.4,0.2-0.2C250,46.3,249.8,46.6,248.1,46.1z M223.7,38.6
	c1.4,0,3.2,0,4.5,0.5C228.5,39.3,225.4,39,223.7,38.6z M177.2,32.2c-1,0-1.9,0.2-1.1-0.1c0.7,0,1.5-0.2,2.3-0.1
	C178,32,177.6,32.1,177.2,32.2C176.3,32.1,177.6,32.1,177.2,32.2C176.3,32.1,177.6,32.1,177.2,32.2z M202,34.5
	c-2-0.2,1.6-0.3,2.7-0.2C203.7,34.5,202.9,34.4,202,34.5z M237.6,42.8c-0.7-0.1-2.1-0.6-0.9-0.5C237.6,42.5,238.4,42.8,237.6,42.8z
	 M174.9,32.7c-3.1,0.4-2.5,0.3,1.9-0.4C176.2,32.5,175.5,32.7,174.9,32.7C175.1,32.7,175.5,32.7,174.9,32.7
	C175.1,32.1,175.5,32.7,174.9,32.7z M175.8,33.4c1.2-0.1,2.6-0.4,3.8-0.4C178.5,33.3,175.5,33.6,175.8,33.4z M247.7,47.8
	C246.3,47.8,253.8,49.3,247.7,47.8C248.4,47.8,248.7,48.1,247.7,47.8C245,47.8,248.7,48.1,247.7,47.8z M98.2,52.1
	c0.9-0.7,1.8-1.1,2.7-1.6C100,51.2,99.1,51.7,98.2,52.1z M178.8,35.4c0.9-0.2,1.8-0.2,2.6-0.2C180.5,35.4,179.6,35.5,178.8,35.4z
	 M146.6,37.9c-1.7,0.4,0.4-0.5,1.5-0.6C147,37.6,147.9,37.4,146.6,37.9z M172.5,36c-1.7,0.4-5.2,0.8-5.5,0.7
	c-1.9,0.5-3.8,0.5-5.6-0.1C164.2,36.2,171.8,36.5,172.5,36C170.9,36.4,172.9,35.8,172.5,36z M81.4,63.1c1.4-1.1,2.8-2.1,4.2-2.9
	C84.3,61.3,81.7,63.1,81.4,63.1z M216.4,41.4c0.7,0.1,3.3,0.4,2.8,0.6C218.4,41.9,215.9,41.5,216.4,41.4z M186.8,38.4
	c-1.1-0.1-2.4,0.1-3.6,0.1C193.9,35.8,189.8,37.9,186.8,38.4C185.7,38.3,188.1,38.2,186.8,38.4C185.7,38.3,188.1,38.2,186.8,38.4z
	 M135.2,43.1c-1.8,0.2-1.1-0.2,2-1C139.1,41.6,138.4,41.9,135.2,43.1C133.8,43.5,136.2,42.6,135.2,43.1
	C130.6,44.3,136.2,42.6,135.2,43.1z M190.5,40.3c1.4-0.2,2.8-0.4,4.1-0.4C193.2,40.2,191.7,40.5,190.5,40.3z M160.3,40.2
	c0.9-0.3,1.7-0.4,2.5-0.4C161.9,40,161.1,40.2,160.3,40.2z M170.8,39.9c1.4-0.3,2.7-0.6,4-0.6C173.5,39.7,172.2,39.8,170.8,39.9z
	 M161.6,40.8c-1.9,0.4-3.8,0.9-5.8,1.3C163.5,39.9,165.4,39.5,161.6,40.8C160.6,40.9,162.5,40.5,161.6,40.8
	C159.6,41.1,162.5,40.5,161.6,40.8z M131.2,46.5c1.8-0.8,3.5-1.5,5.3-2.1C134.7,45.3,133,45.9,131.2,46.5z M182,41.3
	c1-0.2,2-0.2,2.9-0.3C184,41.1,183,41.2,182,41.3C183,41.1,183.3,41.3,182,41.3z M187.8,40.7c0.5,0.2,1.4,0.1,2.8,0.1
	c-2.5,0.1-4.6,0.7-5.8,0.5C185.5,41.2,187.8,40.7,187.8,40.7C188.4,40.9,186.8,40.9,187.8,40.7z M181.8,40.9
	c0.7,0.1,3.4-0.4,2.8-0.1c-1.4,0-2.8,0-4.2,0c1.2-0.1,2.4-0.3,3.6-0.4C183.5,40.6,181.2,40.8,181.8,40.9
	C182.5,41,181.2,40.8,181.8,40.9C182.5,41,181.2,40.8,181.8,40.9z M157.1,42.4c0.9-0.1,1.9-0.6,2.9-0.6
	C159.2,42.1,156.7,42.6,157.1,42.4z M161.4,41.4c-1.1,0.3,1.1,0-0.4,0.4C159.4,42.1,160.1,41.6,161.4,41.4z M153.3,42.5
	c-1.9,0.5-3.8,1-5.7,1.5C148.8,43.6,153.1,42,153.3,42.5C151.4,43.1,153.3,42.4,153.3,42.5z M98.1,59.4c1.2-0.8,2.4-1.6,3.5-2.5
	C100.5,57.7,99.3,58.6,98.1,59.4C99,58.6,99.6,58.6,98.1,59.4C98.8,58.8,99.6,58.6,98.1,59.4z M57.2,85c-0.7,0.7-1.3,1.5-1.4,1.3
	C56.4,85.3,57.9,84,57.2,85z M178.4,41.4c1.1-0.1,2.2-0.2,3.2-0.2C180.7,41.6,178.1,41.5,178.4,41.4z M105.5,56.6
	c1.3-0.9,2.7-1.6,4-2.2C108.2,55.3,106.9,56,105.5,56.6z M164.5,43.3c18-2.1,3.4-1,3.7-1.1c1.4-0.2,2.3-0.3,2.8-0.2
	C169,42.5,165.2,43.4,164.5,43.3C165.3,43.2,165.2,43.4,164.5,43.3C165.9,43.1,165.2,43.4,164.5,43.3z M115.7,53
	c-1.5,0.7-3,1.6-4.4,2.2C120.6,44.7,114.3,53.9,115.7,53C114.3,53.6,116.2,52.6,115.7,53z M142.9,46c-0.7,0.2-1.4,0.4-2.1,0.5
	C141.8,46,144,45.6,142.9,46z M159.2,44.3C163,43.5,163,43.5,159.2,44.3C159.7,44.1,160.1,44.2,159.2,44.3
	C160.1,43.8,160.1,44.2,159.2,44.3z M136,48.3c1-0.4,2.1-1.1,3.1-1.3C138,47.6,137,48,136,48.3z M126,51.5c1.1-0.5,2.3-1,3.4-1.5
	C128.3,50.5,127.1,51,126,51.5C127.3,50.7,127.2,51.2,126,51.5C127,50.7,127.2,51.2,126,51.5z M133.6,48.5c-1.4,0.3-2.8,1.2-4.1,1.5
	C130.6,49.2,133.5,48.3,133.6,48.5z M154.3,45c1-0.5,1.9-0.5,2.8-0.6C156.2,44.7,155.3,44.8,154.3,45z M131.1,49.9
	c0.9-0.6,1.8-0.7,2.8-1.1C133.9,49,132.1,49.7,131.1,49.9z M127,52c5-2.4,5.4-2.6,1.4-0.6c0.5-0.1,1.4-0.6,1-0.3
	c-2.1,1-3,1.2-4.4,1.6C125.4,52.5,128.4,51.7,127,52C128.2,50.9,126.5,52.1,127,52z M121.9,53.7c2.2-1.2,4.5-2.1,6.8-3
	C128.5,51.3,124.2,52.8,121.9,53.7z M155.2,46.1c1.8-0.5,3.5-0.9,5.3-1.2C158.7,45.3,156.9,45.9,155.2,46.1z M144.8,47.7
	c0.1-0.2,0.3-0.4,1.8-0.8C146.6,47,145.7,47.5,144.8,47.7z M147.2,48c-1.9,0.5,1.4-0.6,0.4-0.4c-0.9,0.2-1.9,0.8-2.8,0.8
	c1.9-0.8,3.7-1.2,5.6-1.8C149.9,46.9,148,47.4,147.2,48C145.3,48.5,148,47.4,147.2,48C145.3,48.5,148,47.4,147.2,48z M119.2,54.5
	c-2.1,1.3-4.5,2.1-3.7,1.4C116.6,55.5,116.4,55.7,119.2,54.5z M119,55.2C122.1,53.7,122.1,53.7,119,55.2
	C119.5,54.9,119.7,55.1,119,55.2C119.6,54.5,119.7,55.1,119,55.2z M132.5,51.5C133.2,51.3,136.3,49.6,132.5,51.5
	C131.5,51.8,133,51.2,132.5,51.5C131.4,51.8,133,51.2,132.5,51.5z M138.2,50.4c-0.8,0.1-0.7-0.1,0.4-0.6
	C140.2,49.4,139.5,50,138.2,50.4z M120.6,54.9c-1,0.7-2.7,1.3-2.7,1.1C119.6,55,119.2,55.5,120.6,54.9z M132.4,52.6
	c-0.6,0.2-1.1,0.3-1.7,0.6c2-0.8,4.1-1.6,6.1-2.3C135.4,51.4,133.9,52,132.4,52.6C131.9,52.8,133.9,51.9,132.4,52.6
	C131.9,52.8,133.9,51.9,132.4,52.6z M123.1,56.2c2.1-0.7,6-2.7,7-2.8C128.1,54.2,122.8,56.7,123.1,56.2z M125.1,55.3
	C127.5,53.9,127.8,54.3,125.1,55.3C125.7,54.9,126.5,54.7,125.1,55.3C126.1,54.7,126.5,54.7,125.1,55.3z M113.6,61
	c-0.8,0.2-1.5,0.9-2.3,1.1c0.8-0.6,1.7-1.1,2.5-1.5C114,60.6,113.2,61.3,113.6,61C112.9,61.3,113.9,60.8,113.6,61z M85.4,76.1
	c1-0.8,3.9-3.4,3.2-2.4C87.7,74.3,85.4,76.4,85.4,76.1z M56.1,98.1c-1.2,1.2,0-0.6,0.8-1.4C56.4,97.6,57,97,56.1,98.1z M86.3,75.7
	c0.6-0.7,1.3-1.1,2-1.6C87.7,74.6,87,75.2,86.3,75.7C87,75,86.5,75.7,86.3,75.7z M85.6,76.8c-1.5,1-0.3-0.3,0.8-1
	C86.4,75.9,86.7,75.7,85.6,76.8z M98.2,70c-1,0.4-1.8,1.3-2.7,1.8c1.5-1.2,2.9-2.3,4.5-3.2C99.4,69,98.8,69.5,98.2,70
	C97.3,70.3,98.8,69.5,98.2,70C97.3,70.3,98.8,69.5,98.2,70z M85.7,77.1c0.6-0.7,1.2-1.3,2-1.6C87.1,76.2,86.4,76.6,85.7,77.1z
	 M80.3,80.4c-1.4,1.5-1.3,0.9-2.8,2.3C78.3,81.8,80.1,80.3,80.3,80.4z M76.6,83.4l-1.2,0.8c0.5-0.7,2.5-2.5,2.2-2
	C76.8,82.8,76.6,83.3,76.6,83.4z M48.6,107.7c0.5-0.7,1.1-1.3,1.7-2c-3.2,4.3-6.3,8.6-9.3,12.9c0.8-1.3,1.7-2.6,2.5-3.9
	c-0.6,0.7-1.1,1.5-0.8,0.8c5.1-6.8,6-8.1,2.5-3.8C46.5,109.2,50.3,106.5,48.6,107.7C49.1,107,48.2,108,48.6,107.7z M80.5,81
	c-1.4,0.9-2.6,2.2-3.9,3.2C77.3,83.3,82.9,78.5,80.5,81C79.1,81.9,81.3,80.2,80.5,81z M91.3,74.7c1-0.8,1.9-1.7,2.9-2.3
	C93.3,73.2,92.4,74.1,91.3,74.7z M69.2,89.1c0.5-0.8,1.1-1.4,1.9-1.9C70.5,88,69.9,88.7,69.2,89.1z M62,98.2
	c-0.4,0.5-0.8,0.9-1.3,1.3c4-5.4,9.1-11.5,14.8-15.1c1.5-1.6-15.6,15.4-9.6,10.1c-0.9,1.1-1.8,2.1-2.7,3.2c0.4-0.3,1-1.1,0.8-0.7
	c-1,0.9-3.1,3.6-3.3,3.4c1.2-1.3,3-3.6,1.8-2.6c0,0.4-3.2,3.9-3.4,3.9C60.1,100.6,61,99.4,62,98.2C61.5,98.7,62.4,98,62,98.2z
	 M61.2,99.8c-0.8,1.4-1.9,2.6-3.1,3.7C68.9,87.9,58.9,102.4,61.2,99.8C61.4,99.9,60.1,101,61.2,99.8z M91.3,74.6
	c-1.5,1.1-2.9,2.3-4.3,3.3C88.3,76.8,90.8,74.6,91.3,74.6z M79.1,82.5c0.6-0.4,1.1-1.1,1.7-1.4C80.5,81.7,78.7,83,79.1,82.5z
	 M73.9,87c0.6-0.8,2.6-2.7,2.5-2.2C75.5,85.5,74.7,86.3,73.9,87z M84.4,80c0-0.1,1.4-1.4,2.3-1.9C85.9,78.8,85.2,79.4,84.4,80z
	 M38.8,122.1c0-0.4,1.2-2,0.8-1.9C40.6,118.7,39.4,121.2,38.8,122.1z M36.6,125.7c0.7-1.3,1.4-2.5,2-3.8
	C32.8,134.1,38.1,123.8,36.6,125.7C37,124.3,37.4,124.7,36.6,125.7z M66.8,94c0.6-0.7,2.4-2.8,2.3-2.4C68.3,92.4,67.6,93.3,66.8,94z
	 M72.3,90.4c0.6-0.7,1.2-1.4,1.8-1.8C73.5,89.3,72.9,89.9,72.3,90.4z M56.6,105c-0.6,0.7-1.3,1.5-1.9,2.3
	C58.8,100.1,58,102.9,56.6,105C55.9,105.7,57.1,104.1,56.6,105z M51.6,110.8c-0.4,0.4-0.8,0.9-1.2,1.4c0.9-1.4,1.8-2.8,2.7-4.1
	C43.6,123,52.8,108.7,51.6,110.8C51.2,111.2,52.3,109.7,51.6,110.8z M54.7,107.9c-0.3,0.3-1,1.1-0.8,0.7c1.1-1.3,2.2-2.7,3.3-4
	C45,121.1,55.8,105.8,54.7,107.9C54.4,108.3,55.2,106.9,54.7,107.9z M3.3,203.3C3.9,200.2,3.5,201.3,3.3,203.3
	C3,205,3.4,202.3,3.3,203.3z M28.8,141c-0.5,1.2-1,2.3-1.7,3.4C28.8,139.2,27.7,143,28.8,141C28.3,142.2,27.8,143,28.8,141z
	 M46.6,117.6c1.7-2.9,3.7-5.4,6.1-7.7c-3.2,4.4-6.3,8.8-9.3,13.4C43.1,123,46.9,116.8,46.6,117.6C48.2,115.2,46.2,118.7,46.6,117.6z
	 M65.8,99.1c-1.4,1.2-2.1,2.6-2.8,3.5C64.1,101.6,65.8,99,65.8,99.1C64.4,100.3,66.1,98.6,65.8,99.1z M47.5,117.7
	c-0.9,1.3-1.9,2.6-2.8,3.9C45,121.2,47.5,117.6,47.5,117.7C46.6,119,48.2,116.2,47.5,117.7z M56.9,108.4c-0.1-0.1,0.8-1.5,1.5-2.2
	C57.9,107,57.5,107.8,56.9,108.4z M58.7,107.5c0.5-0.8,1.1-1.3,1.5-2.2c-0.7,0.6-1.2,1.4-0.8,0.6c0.7-0.8,2.6-3.2,2.7-2.9
	C52.2,117.3,62.1,104,58.7,107.5C59.2,106.7,60.3,105.9,58.7,107.5z M42.4,124.8c-0.5,0.4-1.6,2.8-1.4,2.1
	C41.5,126,42.8,123.6,42.4,124.8z M47.6,119.7c0.8-1.3,1.6-2.5,2.4-3.7C50,116.1,47.7,119.8,47.6,119.7z M56.3,110.1
	c0.8-1,1.7-2.1,2.5-3.1C47.4,117.7,59,107.4,56.3,110.1C56.8,109.3,57.2,109.2,56.3,110.1z M34.9,138.5c1.8-2.8,3.4-5.6,4.8-8.6
	c0.2-1.1-6.6,7.7,0.9-2.3C38.9,131.3,37,135,34.9,138.5C36.2,135.9,36.2,135.9,34.9,138.5C39.6,130.7,36.6,135.5,34.9,138.5z M2,229
	c0.1-1.3-0.2-2.7,0.1-4C2.1,226.1,2.2,229.3,2,229z M19.1,166.2c-0.3,0.6-0.6,1.4-0.7,2.2c-0.7,1.3,0.2-2.7,1-4.7
	C19,164.5,18.9,165.3,19.1,166.2C18.7,166.8,18.9,165.9,19.1,166.2z M51.9,115.9c1.2-1.9,2.6-3.5,3.9-5.3
	C46.9,126.5,55.3,111.8,51.9,115.9C53.1,114,53,114.5,51.9,115.9z M31.1,143.1c0.7-1.4,2.1-4.5,2.4-4.6
	C32.8,139.8,31.5,143.1,31.1,143.1z M33.4,140.4c-1,1.6-1.7,3.6-2.7,5.2c0.8-2.1,2.6-5.7,3.1-6.4C32.9,140.9,33.5,141,33.4,140.4
	C32.4,142.1,33.3,140.3,33.4,140.4z M50.3,118.4c0.3-0.6-0.5,0.5-0.3,0.1c0.6-0.7,1-1.7,1.7-2.3C51.2,116.9,50.8,117.6,50.3,118.4
	C50.6,117.8,50.9,117.7,50.3,118.4z M46.4,124c0.5-1.2,1.2-2.2,1.9-3.1C47.7,121.9,47.1,123,46.4,124z M33.6,141.2
	c-0.8,2.1-1.1,2.3-1.9,3.5C33.2,140.6,32.8,142.8,33.6,141.2C32.8,143.3,32.8,142.8,33.6,141.2z M48.8,121.5c-1.2,1.5-2,3.4-3.2,4.8
	C46.6,124.6,48.8,121.6,48.8,121.5C47.6,123,48.8,121.2,48.8,121.5z M43.8,128.4c0.7-1.3,1.5-2.6,2.2-3.8
	C40.5,137.3,45.5,125.7,43.8,128.4C44.2,127,44.8,126.9,43.8,128.4z M28.4,152.7c0.7-1.6,2.2-6.4,2.3-5.5
	C29.8,148.9,29.4,151,28.4,152.7z M24,162.7c0.3-1,0.6-2,0.9-2.9C25,159.9,24.5,161.7,24,162.7z M24.2,163.3
	c0.9-2.1,2.5-7.6,2.8-7.2C26.1,158.2,24.8,162.5,24.2,163.3z M19.6,175.1c0.1-1.1,0.4-2,0.7-3C20.4,172.3,20,174.1,19.6,175.1z
	 M20.8,173c-0.8,1.8-1.1,4.1-1.8,6c0.1-1.4,1.2-5.3,2-7.6C21,171.8,20.7,173.6,20.8,173C20,174.8,21.1,171.7,20.8,173z M20.8,173.9
	c-0.7,2-0.3,2.5-1.1,4.8C22.8,161.4,20.7,175.9,20.8,173.9C20,175.9,20.9,172.6,20.8,173.9z M17.8,186.2c0.1-1.2,0.3-2.3,0.6-3.4
	C18.5,182.9,18.2,185.2,17.8,186.2z M26.9,164.3c0.2-1.3,0.8-2.4,1.2-3.5C27.7,162,27.4,163.2,26.9,164.3z M27.3,163.8
	c0.2-0.8,1.1-3.2,1.1-2.7C28,161.9,27.8,163,27.3,163.8z M25.3,168.7c0.1-0.7-0.4,0.9-0.4,0.5c0.2-0.9,0.4-1.8,0.7-2.5
	C24.9,169.5,25.8,167.2,25.3,168.7C25.4,168,25.9,166.9,25.3,168.7z M26.1,168.9c0-0.2,0.3-1.7,0-1.3c-0.2,0.9-0.5,1.6-0.9,2.4
	c0.4-1.8,0.8-3.8,1.4-5.4C25.8,168.4,26.5,167.8,26.1,168.9C26.1,168.7,27.3,165.8,26.1,168.9z M14.7,199.4
	c-0.1-0.8,0.4-3.2,0.4-2.6C15,197.6,15,198.6,14.7,199.4z M24,173.8c0.1-0.9,0.4-1.8,0.7-2.5C24.5,172.2,24.3,173,24,173.8z
	 M16.3,195.5c-0.3,3.7-0.8,7.4-1.5,11.1C14.8,202.8,15.3,199.1,16.3,195.5C15.9,197.8,15.9,197.8,16.3,195.5
	C15.9,199.1,15.8,198.4,16.3,195.5z M14.4,208.7c-0.5,2-0.2-2.7,0.2-3.9C14.7,207.8,14.4,208.9,14.4,208.7
	C13.9,210.6,14.2,206.9,14.4,208.7z M14.4,212.9C15,208.4,14,211.3,14.4,212.9C14.2,214.1,14.1,211.9,14.4,212.9z M13,221.8
	c-0.1-1.2-0.2-2.3,0.1-3.4C13.1,219.6,13.1,220.7,13,221.8z M27,327.1c0.5,0.8,1.9,3.5,1.5,3.2C27.4,329,27.1,327.1,27,327.1
	C27.5,328,27,327.2,27,327.1z M14.2,242.3c-0.1,2.1-0.9-3.7-0.5-3.4C13.7,240.5,14,240.4,14.2,242.3z M30,332.7
	c1.1,1.8,3.3,5.5,3.4,6.2C32.4,336.9,29.9,332.7,30,332.7C31.2,334.5,29.8,332.8,30,332.7z M36.2,343.2c-0.5-0.9-1.2-1.8-1.7-2.7
	C34.7,340.3,37.2,344.4,36.2,343.2z M17.6,242.4c-0.2-1.3-0.3-2.5-0.3-3.7C17.6,240,17.6,241.2,17.6,242.4z M18.5,249.1
	c0.4,0.8,0.5,6,0.5,4c2.5,8.3-3.5-8.2-1-9.9C18.1,243.7,18.4,249.3,18.5,249.1C18,248,18.5,248.3,18.5,249.1z M19.2,251.4
	c-0.4-1.9-0.6-3.7-0.7-5.5C18.7,247.7,19.1,249.6,19.2,251.4z M51.8,364.4c0.9,1.4,3.8,4.2,3.7,4.6C54.3,367.6,51.8,365,51.8,364.4z
	 M20.2,258c0,0.5,0.1,1.4,0,1c-0.2-1.8-0.3-2.6-0.6-3.3C19.5,256.3,20.2,258.1,20.2,258C20.2,258.4,19.9,256.6,20.2,258z M21,264.7
	c0,0.8,0.4,1.7,0.3,2.5C21,266.2,20.6,263.6,21,264.7z M21.4,262.1c0.1,0.9,0,1.2-0.1,0.7C21,258.3,21,260.5,21.4,262.1z
	 M64.8,379.2c-0.9-1-1.8-1.9-2.8-2.9C70.5,384,63.3,377.2,64.8,379.2C63.7,378.5,64.1,378.2,64.8,379.2z M23.9,277.7
	c1,1.6,1.1,10.5-0.8-2.5C23.3,276,23.6,276.8,23.9,277.7C24.2,278.2,23.7,277,23.9,277.7z M69.4,384.4l-1-1.2
	C69.5,384,70.8,385.6,69.4,384.4z M26.3,286.9c0.4,1.1,0.8,2.1,1,3.1C24.1,286.2,26.6,288,26.3,286.9
	C26.7,287.9,26.4,287.2,26.3,286.9z M82.8,395.9c0.7,0.6,1.4,1.2,2,1.8C81.4,395.3,81.1,394.5,82.8,395.9
	C83.5,396.5,81.2,394.6,82.8,395.9z M30.3,297.3c0.5,1.5,1.9,4.8,1.8,5.2c-0.3-1-0.8-2.1-1.2-3.1c0.1,0.6,0.4,1.1,0.5,1.7
	C29.9,299.6,30.4,297.3,30.3,297.3C30.8,298.8,30.2,297.5,30.3,297.3z M89,400.8c-0.6-0.3-0.3,0-1.2-0.6
	C87.1,399.6,87.6,399.5,89,400.8z M32.8,304.6c0.5,1.7,0.3,1.5-0.2,1c-0.2-0.5-0.3-0.9-0.5-1.4C32,303.9,32.9,304.7,32.8,304.6
	C33.4,306.2,32,302.8,32.8,304.6z M91.5,403.1c-0.9-0.5-1.6-1-2.2-1.7C90.2,401.9,90.9,402.5,91.5,403.1z M34.9,308.9
	c-0.8-1.8-1.8-3.6-2.3-5.4C33.6,306,34.9,308.8,34.9,308.9C34.1,307.1,34.8,308.5,34.9,308.9z M35.9,311.7c-0.2-0.4,0,0.4-0.1,0.3
	c-1-1.9-1.8-3.8-2.6-5.7C34.3,308.2,35.9,311.6,35.9,311.7C35.7,311.3,35.4,310.3,35.9,311.7z M99.8,408.7c-1.6-1-3.2-2-4.8-3
	C100.2,408.1,98.9,408.1,99.8,408.7C98,408,98.3,407.6,99.8,408.7z M37.4,314C37.3,316.4,34.5,310.8,37.4,314
	C37.4,314.5,37,313.5,37.4,314z M39.1,318.6c0.7,1.1,1.1,2.2,1.6,3.3C40,320.9,38.9,318.8,39.1,318.6z M43.2,325.8
	c0.6,1,1.2,1.9,1.7,2.9c-0.7-0.8-1-1.7-1.5-2.6c0.1,0.2,0.3,0.6,0,0.3C43,325.6,43.2,326.3,43.2,325.8
	C43.8,326.8,43.2,325.9,43.2,325.8z M47.1,333.2c-0.6-1-1.3-2.1-1.8-3.2C47.4,333,46.7,333.1,47.1,333.2
	C46.5,332.2,47.2,333.3,47.1,333.2z M46.6,332.6C47.6,334.7,47.6,334.7,46.6,332.6C47.1,333,46.4,332.3,46.6,332.6z M51,339.8
	c-1.3-1.6-2.3-3.3-3.2-5C49.1,336.5,49.9,338.2,51,339.8z M52.1,340.7c-0.7-0.5-1.9-2.5-2.8-4C50.4,338,51.4,339.3,52.1,340.7z
	 M56.8,348.4c0.1,0.3,0,0.2,0.4,1c-1.1-1.3-2.1-2.6-2.8-3.9C55.2,346.4,56,347.4,56.8,348.4C56.9,348.7,56.6,348.4,56.8,348.4z
	 M71.1,365.1c-0.7-0.6,0.8,0.8,0.8,1.1c-0.6-0.4-2.1-2.3-1.6-1.9C70.5,364.6,70.8,364.9,71.1,365.1
	C70.3,364.6,70.6,364.6,71.1,365.1z M203.7,431.4c1,0.1,2,0.1,2.9,0.3C203.3,432.3,199.5,432.3,203.7,431.4
	C204.7,431.6,202.8,431.6,203.7,431.4z M215.8,432.2c-1.5-0.2-3.8,0.1-3.2-0.2C213.4,432.1,216.2,432,215.8,432.2z M352,392
	C351.2,393,347.4,396,352,392C350.1,394,350.1,394,352,392C352,392.1,350.7,393.1,352,392z M349.3,395.2c-1,0.8-2.1,1.8-2.7,2.3
	C348.4,395.6,350.7,393.7,349.3,395.2C348.3,395.9,350.5,393.9,349.3,395.2z M251.7,428.9c1.1-0.3,2.2-0.5,3.3-0.7
	C254.2,429.7,253.1,429.9,251.7,428.9C252.9,428.5,252.4,428.8,251.7,428.9z M356.3,387.8c0.9-0.6,0.4,0,0.7-0.1
	c-0.8,0.6-1.4,1.6-2.3,2.2C360.5,381.7,355.8,388.4,356.3,387.8C357.1,387.2,355.6,388.8,356.3,387.8z M259.3,427.5
	c-1.7,0.3-1.3,0.5-2.9,0.7C256.1,428.2,259.8,427.2,259.3,427.5z M357.1,387c0.5-0.7,1.1-1.2,1.7-1.7
	C358.2,385.9,357.7,386.5,357.1,387C357.7,386.4,357.6,386.7,357.1,387z M350.9,373.4c-1,0.8-1.8,2.1-2.7,3
	C348.9,375.3,350.9,373.1,350.9,373.4z M354.9,369c-1.2,1.4-2.4,2.8-3.7,4C352.3,371.5,353.6,370.2,354.9,369z M356.4,366.8
	c-0.4,0.8-0.9,1.5-1.6,2C355.2,368,355.8,367.5,356.4,366.8z M406.5,261.7c-0.2,3-0.4,6-0.4,9C406.2,268.2,406.5,261.8,406.5,261.7
	C406.5,261.9,406.3,264.7,406.5,261.7z M407.2,251.4c0.1-0.6,0.2-0.9,0.3-0.6c-0.1,2.6-0.1,5.2-0.3,7.7
	C407.2,220.9,407.2,257,407.2,251.4C407.3,250.8,407.2,253.8,407.2,251.4z M388.6,308.6c0,0.4-0.7,3.1-1.3,4.3
	C387.7,311.4,388.2,310,388.6,308.6z M406.9,239.8c0.1,3.1,0.3,6.2,0.4,9.3C407,246.1,406.9,243,406.9,239.8
	C407,243.6,407,243.6,406.9,239.8C407.7,243,406.8,244.1,406.9,239.8z M394.4,283.2c0.2-2.3,2.9-6,0.3,1
	C395.3,281.1,394.5,282.7,394.4,283.2C394.6,279.6,395,281.1,394.4,283.2z M404.7,211.9C404.8,214.9,405.5,214.4,404.7,211.9
	C404.7,210.7,405,212.8,404.7,211.9z M402.8,226.2c-0.2-1.4-0.3-2.7-0.4-4.1C402.6,223.2,402.9,226.3,402.8,226.2
	C402.8,223.9,403,226.3,402.8,226.2z M399.5,239.8c-0.1,0.8,0.2,1.8,0,2.5C399.3,241.6,399.3,239.2,399.5,239.8z M399,229.6
	c0.3,1.9,0.5,3.8,0.4,5.5C399.4,233.3,399.1,231.3,399,229.6z M398.5,222.3c0.2,1,0.3,2,0.2,2.9
	C398.6,224.2,398.5,223.2,398.5,222.3z M397.7,222.8c0.1-0.9,0-1.3-0.1-1.5c-0.1-1.6,0.5,1.7,0.4,2.2
	C397.8,222.9,397.5,222.4,397.7,222.8C397.8,221.8,397.8,222.9,397.7,222.8z M382.5,159.8c0.2,0,1,1.7,1.5,2.7
	C383.8,162.5,382.8,160.8,382.5,159.8z"/>
</svg>
